<svg width="1200" height="630" viewBox="0 0 1200 630" fill="none" xmlns="http://www.w3.org/2000/svg">

<path d="M134.404 674C135.813 674 137.202 674.084 138.568 674.241C138.878 674.233 139.189 674.229 139.5 674.229H280.5C300.106 674.23 316 690.123 316 709.729C316 729.335 300.106 745.229 280.5 745.229H140.416C138.529 745.533 136.591 745.694 134.614 745.694C132.745 745.694 130.699 745.734 128.907 745.459C108.296 745.57 91.6198 762.307 91.6191 782.943C91.6192 783.46 91.6402 783.973 91.6621 784.484C91.8016 785.771 91.875 787.078 91.875 788.401C91.875 791.119 91.5716 793.766 91 796.311V1025C91 1044.33 75.3299 1060 56 1060C36.67 1060 21 1044.33 21 1025V796.844C20.3479 794.136 20 791.309 20 788.401C20.0007 768.554 36.0922 752.465 55.9395 752.465C56.8732 752.465 57.798 752.516 58.7139 752.586C59.5594 752.644 60.4124 752.685 61.2725 752.685C81.978 752.684 98.7629 735.896 98.7637 715.19C98.7637 714.89 98.7478 714.588 98.7402 714.289C98.568 712.862 98.7636 711.447 98.7637 709.974C98.7643 690.127 114.558 674.001 134.404 674ZM585.729 636.912C605.462 636.912 621.459 652.908 621.459 672.641V751.541C621.459 771.274 605.462 787.27 585.729 787.271C565.997 787.271 550 771.274 550 751.541V672.642C550 652.909 565.997 636.912 585.729 636.912ZM1327.07 552.659C1346.91 552.66 1362.71 568.786 1362.71 588.633C1362.71 590.106 1362.9 591.521 1362.73 592.948C1362.72 593.248 1362.71 593.549 1362.71 593.851C1362.71 614.556 1379.49 631.345 1400.2 631.345C1401.06 631.345 1401.91 631.305 1402.76 631.246C1403.67 631.176 1404.6 631.125 1405.53 631.125C1425.38 631.126 1441.47 647.214 1441.47 667.061C1441.47 686.908 1425.38 702.999 1405.53 703C1385.69 703 1369.6 686.908 1369.6 667.061C1369.6 665.737 1369.67 664.431 1369.81 663.145C1369.83 662.633 1369.85 662.119 1369.85 661.603C1369.85 640.966 1353.18 624.229 1332.57 624.118C1330.77 624.393 1328.73 624.353 1326.86 624.354C1307.01 624.354 1291.13 608.444 1291.13 588.596C1291.13 568.748 1307.22 552.659 1327.07 552.659ZM203 392C222.33 392 238 407.67 238 427V495.157C238.652 497.868 239 500.701 239 503.615C239 513.946 234.715 523.199 227.837 529.658C221.496 536.045 212.71 540 203 540C200.172 540 197.423 539.662 194.789 539.028C176.376 541 162.027 556.785 162.026 575.972C162.026 576.484 162.047 576.993 162.068 577.5C162.205 578.775 162.277 580.069 162.277 581.381C162.277 601.052 146.546 617 127.14 617C124.167 617 121.281 616.624 118.523 615.919C100.372 616.827 85.6794 630.755 83.7256 648.492C84.5543 651.475 84.9999 654.615 85 657.859C84.9999 677.266 69.1592 693 49.6211 693C49.4137 693 49.2066 692.995 49 692.991C48.7934 692.995 48.5863 693 48.3789 693C28.8408 693 13.0001 677.266 13 657.859C13.0001 654.615 13.4448 651.474 14.2734 648.492C12.2594 630.209 -3.28914 615.972 -22.209 615.871C-23.9733 616.14 -25.9881 616.1 -27.8281 616.101C-47.3665 616.101 -62.9999 600.544 -63 581.138C-62.9994 561.731 -47.1591 546 -27.6211 546C-8.08398 546.001 7.46418 561.768 7.46484 581.174C7.46484 582.615 7.65691 583.998 7.4873 585.394C7.4799 585.686 7.46486 585.981 7.46484 586.275C7.46561 606.521 23.9883 622.936 44.3711 622.937C44.4069 622.937 44.4427 622.935 44.4785 622.935C45.7594 622.795 47.0606 622.722 48.3789 622.722C48.5863 622.722 48.7935 622.725 49 622.729C49.2065 622.725 49.4137 622.722 49.6211 622.722C50.939 622.722 52.2399 622.795 53.5205 622.935C53.5566 622.935 53.5928 622.937 53.6289 622.937C74.0117 622.936 90.5344 606.521 90.5352 586.275C90.5351 585.981 90.5201 585.686 90.5127 585.394C90.3431 583.998 90.5352 582.615 90.5352 581.174C90.5358 563.255 103.793 548.438 121.206 546.272C123.135 545.94 125.117 545.766 127.14 545.766C128.053 545.766 128.958 545.816 129.854 545.886C130.68 545.944 131.514 545.983 132.354 545.983C151.349 545.983 166.967 531.337 168.825 512.58C168.286 510.139 168 507.603 168 505V427C168 407.67 183.67 392 203 392ZM1327.5 87.2041C1347.35 87.2044 1363.44 103.296 1363.44 123.144C1363.44 142.991 1347.35 159.079 1327.5 159.079C1326.56 159.079 1325.64 159.028 1324.72 158.958C1323.88 158.9 1323.03 158.859 1322.17 158.859C1301.46 158.859 1284.67 175.648 1284.67 196.354C1284.67 196.655 1284.69 196.956 1284.7 197.256C1284.87 198.683 1284.67 200.098 1284.67 201.571C1284.67 202.573 1284.63 203.565 1284.55 204.546V515.7C1284.55 535.433 1268.56 551.43 1248.82 551.43C1244.94 551.43 1241.19 550.806 1237.69 549.657C1237.24 549.63 1236.79 549.598 1236.34 549.555C1235.74 549.526 1235.13 549.511 1234.52 549.511C1213.82 549.511 1197.03 566.297 1197.03 587.003C1197.03 587.226 1197.03 587.449 1197.04 587.672C1197.23 589.172 1197.33 590.702 1197.33 592.254C1197.33 612.102 1181.24 628.192 1161.39 628.192C1141.54 628.192 1125.45 612.102 1125.45 592.254C1125.45 572.406 1141.54 556.317 1161.39 556.316C1163.27 556.316 1165.11 556.46 1166.91 556.738C1187.51 556.614 1204.17 539.878 1204.17 519.25C1204.17 518.769 1204.16 518.29 1204.14 517.813C1204 516.492 1203.92 515.149 1203.92 513.789C1203.92 504.573 1207.39 496.168 1213.09 489.807V201.845C1213.09 201.805 1213.09 201.766 1213.09 201.727C1213.09 201.687 1213.09 201.648 1213.09 201.608C1213.09 181.761 1228.97 165.851 1248.82 165.851C1250.69 165.851 1252.74 165.811 1254.53 166.086C1275.14 165.975 1291.82 149.238 1291.82 128.602C1291.82 128.085 1291.8 127.571 1291.78 127.06C1291.64 125.773 1291.56 124.467 1291.56 123.144C1291.56 103.296 1307.65 87.2042 1327.5 87.2041ZM1483.85 397.348C1503.58 397.348 1519.58 413.345 1519.58 433.077V506.639C1519.82 508.32 1519.95 510.039 1519.95 511.787C1519.95 531.635 1504.07 547.545 1484.22 547.545C1482.35 547.545 1480.3 547.586 1478.51 547.311C1457.9 547.422 1441.23 564.158 1441.22 584.795C1441.22 584.84 1441.23 584.885 1441.23 584.931C1441.48 586.667 1441.62 588.445 1441.62 590.253C1441.62 610.1 1425.53 626.191 1405.68 626.191C1405.66 626.191 1405.63 626.19 1405.61 626.19C1405.59 626.19 1405.57 626.191 1405.54 626.191C1385.7 626.191 1369.61 610.1 1369.61 590.253C1369.61 588.449 1369.74 586.676 1370 584.943C1370 584.894 1370 584.844 1370 584.795C1370 564.158 1353.32 547.421 1332.71 547.311C1330.92 547.586 1328.87 547.545 1327 547.545C1307.16 547.545 1291.28 531.635 1291.28 511.787C1291.28 491.94 1307.37 475.852 1327.21 475.852C1347.06 475.853 1362.85 491.978 1362.86 511.824C1362.86 513.297 1363.05 514.713 1362.88 516.14C1362.87 516.439 1362.86 516.741 1362.86 517.042C1362.86 537.747 1379.64 554.536 1400.35 554.536C1400.9 554.536 1401.45 554.517 1401.99 554.49C1403.16 554.375 1404.35 554.316 1405.54 554.316H1405.68C1406.88 554.316 1408.06 554.375 1409.23 554.49C1409.78 554.517 1410.33 554.536 1410.88 554.536C1431.58 554.536 1448.37 537.747 1448.37 517.042C1448.37 516.741 1448.35 516.439 1448.35 516.14C1448.29 515.688 1448.28 515.238 1448.28 514.787C1448.18 513.694 1448.12 512.586 1448.12 511.467V433.077C1448.12 413.344 1464.12 397.348 1483.85 397.348ZM1159.8 470.315C1179.65 470.316 1195.74 486.407 1195.74 506.255C1195.74 526.103 1179.65 542.191 1159.8 542.191C1158.48 542.191 1157.17 542.117 1155.89 541.978C1155.38 541.956 1154.86 541.936 1154.35 541.936C1133.71 541.936 1116.97 558.612 1116.86 579.223C1117.08 580.672 1117.1 582.289 1117.1 583.843C1117.11 584.204 1117.12 584.566 1117.12 584.93C1117.12 588.516 1116.58 591.979 1115.6 595.245C1111.8 608.006 1101.11 617.696 1087.78 620.087C1087.76 620.092 1087.73 620.098 1087.7 620.103C1087.67 620.108 1087.64 620.113 1087.61 620.118C1085.59 620.473 1083.51 620.659 1081.39 620.659H1002.49C982.754 620.659 966.757 604.662 966.757 584.93C966.757 565.197 982.754 549.201 1002.49 549.201H1078.39C1079.37 549.122 1080.37 549.079 1081.38 549.079C1082.85 549.079 1084.26 548.883 1085.69 549.056C1085.99 549.063 1086.29 549.079 1086.59 549.079C1107.3 549.078 1124.09 532.293 1124.09 511.588C1124.09 510.728 1124.05 509.876 1123.99 509.03C1123.92 508.114 1123.87 507.189 1123.87 506.255C1123.87 486.408 1139.96 470.316 1159.8 470.315ZM999.404 314C1019.25 314 1035.34 330.092 1035.34 349.939C1035.34 369.786 1019.25 385.875 999.404 385.875C998.471 385.875 997.546 385.824 996.63 385.754C995.784 385.695 994.931 385.655 994.071 385.655C973.366 385.655 956.581 402.444 956.58 423.149C956.58 423.451 956.596 423.752 956.604 424.052C956.776 425.479 956.58 426.894 956.58 428.367C956.58 430.087 956.459 431.779 956.229 433.435V584.127C956.229 603.733 940.335 619.627 920.729 619.627C901.123 619.627 885.23 603.733 885.229 584.127V432.462C885.08 431.13 885 429.776 885 428.404C885 411.336 896.744 397.18 912.655 393.55C915.249 392.947 917.952 392.627 920.729 392.627C921.092 392.627 921.453 392.634 921.813 392.645C923.369 392.643 924.986 392.659 926.437 392.882C947.047 392.771 963.724 376.034 963.725 355.397C963.725 354.881 963.704 354.367 963.682 353.855C963.542 352.569 963.469 351.263 963.469 349.939C963.469 330.092 979.557 314 999.404 314ZM202.747 311.193C202.787 311.193 202.826 311.192 202.866 311.192C222.714 311.192 238.624 327.074 238.624 346.922C238.624 348.791 238.664 350.838 238.389 352.63C238.5 373.241 255.236 389.916 275.873 389.917C276.39 389.917 276.904 389.896 277.415 389.874C278.701 389.735 280.008 389.661 281.331 389.661C301.179 389.661 317.27 405.749 317.271 425.597C317.27 427.135 317.173 428.652 316.985 430.14V583.256C316.985 602.989 300.989 618.985 281.256 618.985C261.523 618.985 245.527 602.988 245.527 583.256V428.669C245.442 427.656 245.396 426.632 245.396 425.597C245.396 424.663 245.447 423.738 245.517 422.822C245.575 421.977 245.615 421.124 245.615 420.264C245.615 399.558 228.826 382.774 208.121 382.773C207.82 382.773 207.518 382.788 207.219 382.796C205.792 382.968 204.377 382.773 202.903 382.773C201.9 382.773 200.907 382.731 199.925 382.651H123.729C103.997 382.651 88 366.655 88 346.922C88.0001 327.189 103.997 311.192 123.729 311.192H202.629C202.668 311.192 202.708 311.193 202.747 311.193ZM202.938 547C222.785 547 238.876 563.09 238.876 582.938C238.876 602.785 222.785 618.876 202.938 618.876C183.09 618.876 167 602.785 167 582.938C167 563.09 183.09 547 202.938 547ZM-30.0605 378C-10.2141 378.001 5.57947 394.127 5.58008 413.974C5.58012 415.447 5.77579 416.862 5.60352 418.289C5.59599 418.588 5.58009 418.889 5.58008 419.19C5.58086 439.896 22.3657 456.685 43.0713 456.685C43.9314 456.685 44.7844 456.644 45.6299 456.586C46.5457 456.516 47.4705 456.465 48.4043 456.465C68.2515 456.465 84.343 472.554 84.3438 492.401C84.3437 494.902 84.0869 497.343 83.6006 499.7C83.8631 501.429 84 503.198 84 505V583C84 602.33 68.33 618 49 618C29.67 618 14 602.33 14 583V505C14 504.329 14.0204 503.663 14.0576 503.002C13.0248 499.651 12.4688 496.091 12.4688 492.401C12.4688 491.078 12.5422 489.771 12.6816 488.484C12.7036 487.973 12.7236 487.46 12.7236 486.943C12.723 466.307 -3.9525 449.57 -24.5635 449.459C-26.3556 449.734 -28.4024 449.694 -30.2715 449.694C-50.1192 449.694 -66 433.783 -66 413.936C-65.9991 394.088 -49.9079 378 -30.0605 378ZM438.404 467C458.252 467 474.343 483.088 474.344 502.936C474.344 522.783 458.462 538.694 438.614 538.694C436.745 538.694 434.699 538.734 432.907 538.459C412.296 538.57 395.62 555.307 395.619 575.943C395.619 576.46 395.64 576.973 395.662 577.484C395.802 578.771 395.875 580.078 395.875 581.401C395.875 601.249 379.787 617.341 359.939 617.341C340.092 617.341 324 601.249 324 581.401C324.001 561.554 340.092 545.465 359.939 545.465C360.873 545.465 361.798 545.516 362.714 545.586C363.559 545.644 364.412 545.685 365.272 545.685C385.978 545.685 402.763 528.896 402.764 508.19C402.764 507.889 402.748 507.588 402.74 507.289C402.568 505.862 402.764 504.447 402.764 502.974C402.764 483.127 418.558 467.001 438.404 467ZM759.854 467C779.701 467 795.792 483.088 795.793 502.936C795.793 505.402 795.547 507.809 795.079 510.131C796.089 529.935 812.466 545.684 832.521 545.685C833.381 545.685 834.234 545.644 835.079 545.586C835.995 545.516 836.921 545.465 837.854 545.465C857.702 545.465 873.792 561.554 873.793 581.401C873.793 601.249 857.702 617.34 837.854 617.341C818.007 617.341 801.918 601.249 801.918 581.401C801.918 580.078 801.991 578.771 802.131 577.484C802.153 576.973 802.174 576.46 802.174 575.943C802.173 555.307 785.498 538.57 764.887 538.459C763.235 538.713 761.367 538.698 759.621 538.694C757.875 538.698 756.008 538.713 754.356 538.459C733.746 538.57 717.07 555.307 717.069 575.943C717.069 576.46 717.09 576.973 717.112 577.484C717.252 578.771 717.325 580.078 717.325 581.401C717.325 601.249 701.236 617.341 681.389 617.341C681.299 617.341 681.21 617.338 681.121 617.337C681.032 617.338 680.943 617.341 680.854 617.341C661.007 617.341 644.918 601.249 644.918 581.401C644.918 580.078 644.991 578.771 645.131 577.484C645.153 576.973 645.174 576.46 645.174 575.943C645.173 555.307 628.498 538.57 607.887 538.459C606.095 538.734 604.048 538.694 602.179 538.694C582.331 538.694 566.45 522.783 566.45 502.936C566.451 483.089 582.542 467 602.389 467C622.235 467.001 638.03 483.127 638.03 502.974C638.03 504.447 638.225 505.862 638.053 507.289C638.045 507.588 638.03 507.889 638.03 508.19C638.031 528.896 654.815 545.684 675.521 545.685C676.381 545.685 677.234 545.644 678.079 545.586C678.995 545.516 679.921 545.465 680.854 545.465C680.943 545.465 681.032 545.467 681.121 545.468C681.21 545.467 681.299 545.465 681.389 545.465C682.323 545.465 683.248 545.516 684.164 545.586C685.01 545.644 685.863 545.685 686.723 545.685C706.777 545.684 723.153 529.935 724.163 510.131C723.695 507.809 723.45 505.402 723.45 502.936C723.451 483.089 739.542 467 759.389 467C759.466 467 759.544 467.002 759.621 467.003C759.698 467.002 759.776 467 759.854 467ZM599.359 545.285C619.092 545.285 635.089 561.282 635.089 581.015C635.089 600.747 619.092 616.743 599.359 616.743H441.729C421.997 616.743 406 600.747 406 581.015C406 561.282 421.997 545.285 441.729 545.285H599.359ZM1078.94 314C1098.79 314 1114.88 330.09 1114.88 349.938C1114.88 351.298 1114.8 352.641 1114.65 353.962C1114.63 354.438 1114.62 354.917 1114.62 355.397C1114.62 376.03 1131.29 392.767 1151.89 392.887C1153.69 392.61 1155.53 392.466 1157.41 392.466C1173.08 392.466 1186.41 402.501 1191.32 416.495C1193.26 420.915 1194.34 425.8 1194.34 430.938C1194.34 450.785 1178.25 466.876 1158.4 466.876C1157.87 466.876 1157.35 466.862 1156.82 466.839C1156.82 466.841 1156.82 466.842 1156.82 466.844C1156.79 466.841 1156.76 466.838 1156.73 466.835C1156.1 466.806 1155.47 466.761 1154.85 466.7C1154.26 466.673 1153.67 466.658 1153.07 466.658C1132.36 466.658 1115.58 483.444 1115.58 504.149C1115.58 504.374 1115.58 504.599 1115.59 504.822C1115.78 506.322 1115.88 507.851 1115.88 509.403C1115.88 529.251 1099.79 545.341 1079.94 545.341C1060.09 545.341 1044 529.251 1044 509.403C1044 489.556 1060.09 473.466 1079.94 473.466C1081.81 473.466 1083.65 473.61 1085.45 473.887C1105.61 473.77 1121.99 457.753 1122.7 437.745C1121.9 434.766 1121.47 431.635 1121.47 428.403C1121.47 426.851 1121.57 425.322 1121.76 423.822C1121.76 423.599 1121.76 423.374 1121.76 423.149C1121.76 402.444 1104.98 385.658 1084.27 385.658C1083.68 385.658 1083.08 385.673 1082.5 385.7C1081.87 385.761 1081.25 385.806 1080.62 385.835C1080.58 385.838 1080.55 385.841 1080.52 385.844C1080.52 385.842 1080.52 385.841 1080.52 385.839C1080 385.862 1079.47 385.876 1078.94 385.876C1059.09 385.876 1043 369.785 1043 349.938C1043 330.09 1059.09 314 1078.94 314ZM520.855 468C540.703 468 556.793 484.09 556.793 503.938C556.793 523.785 540.703 539.876 520.855 539.876C501.008 539.876 484.918 523.785 484.918 503.938C484.918 484.09 501.008 468 520.855 468ZM837.938 467C857.785 467 873.876 483.09 873.876 502.938C873.876 522.785 857.785 538.876 837.938 538.876C818.09 538.876 802 522.785 802 502.938C802 483.09 818.09 467 837.938 467ZM1483.64 318.167C1503.49 318.167 1519.58 334.257 1519.58 354.104C1519.58 373.952 1503.49 390.043 1483.64 390.043C1483.11 390.043 1482.58 390.029 1482.06 390.006C1482.06 390.008 1482.06 390.01 1482.06 390.012C1482.02 390.008 1481.98 390.005 1481.95 390.002C1481.33 389.973 1480.71 389.929 1480.1 389.869C1479.51 389.841 1478.91 389.826 1478.31 389.826C1457.6 389.826 1440.81 406.612 1440.81 427.318C1440.81 427.543 1440.82 427.768 1440.82 427.992C1441.01 429.491 1441.11 431.019 1441.11 432.569C1441.11 452.417 1425.02 468.508 1405.17 468.508C1385.33 468.507 1369.24 452.417 1369.24 432.569C1369.24 412.722 1385.33 396.632 1405.17 396.632C1407.05 396.632 1408.9 396.776 1410.7 397.054C1431.3 396.929 1447.96 380.194 1447.96 359.565C1447.96 359.087 1447.95 358.611 1447.93 358.137C1447.78 356.813 1447.7 355.468 1447.7 354.104C1447.7 334.257 1463.79 318.167 1483.64 318.167ZM999.938 391C1019.79 391 1035.88 407.09 1035.88 426.938C1035.88 446.785 1019.79 462.876 999.938 462.876C980.09 462.876 964 446.785 964 426.938C964 407.09 980.09 391 999.938 391ZM123.401 232C143.249 232 159.341 248.092 159.341 267.939C159.341 287.787 143.249 303.875 123.401 303.875C122.078 303.875 120.771 303.802 119.484 303.662C118.973 303.64 118.46 303.619 117.943 303.619C97.3065 303.62 80.5698 320.296 80.459 340.907C80.7341 342.699 80.6942 344.745 80.6943 346.614C80.6943 349.112 80.4411 351.548 79.9609 353.896C80.8534 373.81 97.2774 389.684 117.411 389.685C118.271 389.685 119.124 389.644 119.97 389.586C120.886 389.516 121.811 389.465 122.745 389.465C142.592 389.465 158.683 405.554 158.684 425.401C158.683 445.249 142.592 461.34 122.745 461.341C102.897 461.341 86.8088 445.249 86.8086 425.401C86.8086 424.078 86.882 422.771 87.0215 421.484C87.0434 420.973 87.0644 420.46 87.0645 419.943C87.0638 399.307 70.3882 382.57 49.7773 382.459C47.9851 382.734 45.9385 382.694 44.0693 382.694C24.2214 382.694 8.34082 366.783 8.34082 346.936C8.34148 331.797 17.7034 318.846 30.9531 313.553C30.9915 313.537 31.0299 313.521 31.0684 313.505C31.0824 313.499 31.0963 313.494 31.1104 313.488C35.3782 311.732 40.062 310.764 44.9736 310.764C46.4469 310.764 47.8622 310.568 49.2891 310.74C49.5883 310.748 49.8895 310.764 50.1904 310.764C70.8958 310.763 87.6845 293.978 87.6846 273.272C87.6845 272.412 87.6444 271.559 87.5859 270.714C87.516 269.798 87.4649 268.873 87.4648 267.939C87.4651 248.092 103.554 232.001 123.401 232ZM1484.01 240.641C1503.86 240.641 1519.95 256.73 1519.95 276.577C1519.95 296.425 1504.07 312.335 1484.22 312.335C1482.35 312.335 1480.3 312.375 1478.51 312.1C1457.9 312.211 1441.23 328.947 1441.22 349.584C1441.22 350.101 1441.25 350.615 1441.27 351.126C1441.41 352.412 1441.48 353.719 1441.48 355.042C1441.48 374.89 1425.39 390.981 1405.54 390.981C1385.7 390.981 1369.61 374.89 1369.61 355.042C1369.61 335.195 1385.7 319.106 1405.54 319.105C1406.48 319.105 1407.4 319.158 1408.32 319.228C1409.16 319.286 1410.02 319.325 1410.88 319.325C1431.58 319.325 1448.37 302.537 1448.37 281.832C1448.37 281.531 1448.35 281.229 1448.35 280.93C1448.17 279.503 1448.37 278.088 1448.37 276.614C1448.37 256.768 1464.16 240.642 1484.01 240.641ZM1155.48 227C1175.07 227 1190.96 242.885 1190.96 262.479V351.684C1190.96 371.278 1175.07 387.163 1155.48 387.163C1135.88 387.163 1120 371.278 1120 351.684V262.479C1120 242.885 1135.88 227 1155.48 227ZM919.015 -3C938.747 -2.99976 954.743 12.9969 954.743 32.7295V187.315C954.829 188.328 954.875 189.353 954.875 190.389C954.875 191.322 954.824 192.247 954.754 193.163C954.695 194.009 954.655 194.862 954.655 195.722C954.655 216.427 971.444 233.212 992.149 233.213C992.451 233.213 992.752 233.197 993.052 233.189C994.479 233.017 995.894 233.213 997.367 233.213C998.37 233.213 999.363 233.255 1000.35 233.334H1076.54C1096.27 233.334 1112.27 249.331 1112.27 269.063C1112.27 288.796 1096.27 304.793 1076.54 304.793H997.642C997.602 304.793 997.562 304.791 997.522 304.791C997.483 304.791 997.444 304.793 997.404 304.793C977.556 304.793 961.646 288.911 961.646 269.063C961.647 267.195 961.607 265.148 961.882 263.356C961.771 242.746 945.034 226.069 924.397 226.068C923.881 226.068 923.367 226.089 922.855 226.111C921.569 226.251 920.263 226.324 918.939 226.324C899.092 226.324 883 210.236 883 190.389C883 188.85 883.097 187.333 883.285 185.845V32.7295C883.285 12.9968 899.282 -3 919.015 -3ZM121.806 -12.6816C141.653 -12.6813 157.743 3.40826 157.743 23.2559C157.743 43.1034 141.653 59.193 121.806 59.1934C119.931 59.1933 118.089 59.0493 116.291 58.7725C95.687 58.8917 79.0207 75.6297 79.0205 96.2617C79.0205 96.7424 79.0336 97.2209 79.0518 97.6973C79.199 99.0184 79.2764 100.361 79.2764 101.722C79.2764 102.793 79.2257 103.854 79.1338 104.901C79.1959 105.76 79.2295 106.626 79.2295 107.5V267.5C79.2295 287.106 63.3355 303 43.7295 303C24.1234 303 8.22949 287.106 8.22949 267.5V109.421C7.68795 106.94 7.40044 104.365 7.40039 101.722C7.40046 81.874 23.4912 65.7834 43.3389 65.7832C43.8694 65.7832 44.3979 65.7975 44.9229 65.8203C44.9227 65.8187 44.922 65.817 44.9219 65.8154C44.953 65.8185 44.9845 65.8212 45.0156 65.8242C45.6469 65.8532 46.2741 65.8978 46.8965 65.959C47.485 65.9865 48.0775 66.001 48.6729 66.001C69.3785 66.0007 86.1646 49.2154 86.165 28.5098C86.165 28.2852 86.1612 28.0606 86.1572 27.8369C85.9664 26.3368 85.8672 24.8078 85.8672 23.2559C85.8673 3.40817 101.958 -12.6815 121.806 -12.6816ZM278.541 73C298.274 73 314.271 88.9968 314.271 108.729V187.629C314.271 189.733 314.087 191.795 313.738 193.799C311.403 207.313 301.576 218.148 288.632 221.91C285.432 222.851 282.046 223.358 278.541 223.358C278.176 223.358 277.812 223.351 277.449 223.34C275.897 223.342 274.282 223.326 272.834 223.104C252.223 223.214 235.547 239.951 235.546 260.588C235.546 261.104 235.567 261.618 235.589 262.13C235.728 263.416 235.802 264.723 235.802 266.046C235.802 285.894 219.714 301.985 199.866 301.985C180.019 301.985 163.927 285.894 163.927 266.046C163.928 246.199 180.019 230.111 199.866 230.11C200.8 230.11 201.725 230.161 202.641 230.231C203.486 230.29 204.339 230.33 205.199 230.33C225.905 230.33 242.69 213.541 242.69 192.836C242.69 192.535 242.674 192.233 242.667 191.934C242.495 190.507 242.69 189.092 242.69 187.618C242.69 186.612 242.733 185.616 242.812 184.631V108.729C242.812 88.9969 258.808 73.0002 278.541 73ZM200.938 154C220.785 154 236.876 170.09 236.876 189.938C236.876 209.785 220.785 225.876 200.938 225.876C181.09 225.876 165 209.785 165 189.938C165 170.09 181.09 154 200.938 154ZM997.938 153C1017.79 153 1033.88 169.09 1033.88 188.938C1033.88 208.785 1017.79 224.876 997.938 224.876C978.09 224.876 962 208.785 962 188.938C962 169.09 978.09 153 997.938 153ZM600.846 -83C620.578 -83 636.575 -67.0032 636.575 -47.2705C636.575 -27.5379 620.578 -11.541 600.846 -11.541H525.343C524.361 -11.462 523.369 -11.42 522.367 -11.4199C520.894 -11.4199 519.479 -11.2242 518.052 -11.3965C517.752 -11.404 517.451 -11.4199 517.149 -11.4199C496.444 -11.419 479.655 5.36581 479.655 26.0713C479.655 26.9314 479.695 27.7844 479.754 28.6299C479.769 28.8163 479.782 29.0032 479.794 29.1904C479.799 29.2591 479.802 29.3278 479.807 29.3965C479.816 29.5596 479.826 29.723 479.834 29.8867C479.859 30.3899 479.875 30.8958 479.875 31.4043C479.875 31.4336 479.873 31.4629 479.873 31.4922C479.873 31.5218 479.875 31.5514 479.875 31.5811C479.875 32.0883 479.859 32.5928 479.834 33.0947C479.826 33.2594 479.816 33.4238 479.807 33.5879C479.804 33.626 479.802 33.6641 479.8 33.7021C479.786 33.9175 479.772 34.1324 479.755 34.3467C479.755 34.3498 479.754 34.3533 479.754 34.3564C479.695 35.2018 479.655 36.0542 479.655 36.9141C479.655 57.6195 496.444 74.4043 517.149 74.4053C517.451 74.4053 517.752 74.3893 518.052 74.3818C519.479 74.2096 520.894 74.4053 522.367 74.4053C542.214 74.4059 558.34 90.1995 558.341 110.046C558.341 129.893 542.252 145.985 522.404 145.985C502.557 145.985 486.647 130.105 486.646 110.257C486.647 108.388 486.607 106.341 486.882 104.549C486.771 83.9379 470.034 67.2625 449.397 67.2617C448.881 67.2617 448.367 67.2818 447.855 67.3037C446.569 67.4431 445.263 67.5175 443.939 67.5176C424.092 67.5176 408 51.4289 408 31.5811C408 31.5514 408.001 31.5218 408.001 31.4922C408.001 31.4629 408 31.4336 408 31.4043C408 11.5565 424.092 -4.53125 443.939 -4.53125C445.263 -4.53119 446.569 -4.45779 447.855 -4.31836C448.367 -4.29645 448.881 -4.2764 449.397 -4.27637C470.034 -4.27713 486.771 -20.9525 486.882 -41.5635C486.607 -43.3557 486.647 -45.4023 486.646 -47.2715C486.647 -67.1192 502.557 -83 522.404 -83C522.444 -83 522.483 -82.9991 522.522 -82.999C522.562 -82.9991 522.601 -83 522.641 -83H600.846ZM361.938 73.5029C381.785 73.5029 397.876 89.5926 397.876 109.44C397.876 129.288 381.785 145.378 361.938 145.378C342.09 145.378 326 129.288 326 109.44C326 89.5927 342.09 73.5031 361.938 73.5029ZM363.629 -5C365.816 -5 367.957 -4.80298 370.035 -4.42676C383.388 -2.02759 394.088 7.6954 397.867 20.4912C398.836 23.7347 399.358 27.1711 399.358 30.7295C399.358 31.0898 399.351 31.4489 399.341 31.8066C399.343 33.3638 399.327 34.9836 399.104 36.4365C399.214 57.0474 415.951 73.7228 436.588 73.7236C437.104 73.7236 437.618 73.7036 438.13 73.6816C439.416 73.5422 440.723 73.4688 442.046 73.4688C461.894 73.4688 477.985 89.5565 477.985 109.404C477.985 129.252 461.894 145.344 442.046 145.344C422.199 145.343 406.111 129.251 406.11 109.404C406.11 108.471 406.161 107.546 406.231 106.63C406.29 105.784 406.33 104.931 406.33 104.071C406.33 83.3658 389.541 66.5809 368.836 66.5801C368.535 66.5801 368.233 66.596 367.934 66.6035C366.507 66.7758 365.091 66.5801 363.618 66.5801C362.616 66.58 361.624 66.538 360.643 66.459H284.729C264.997 66.459 249 50.4621 249 30.7295C249 10.9968 264.997 -5 284.729 -5H363.629ZM1232.4 -5C1252.25 -5 1268.34 11.0884 1268.34 30.9355C1268.34 50.7834 1252.46 66.6943 1232.61 66.6943C1230.75 66.6942 1228.7 66.7342 1226.91 66.459C1206.3 66.5698 1189.62 83.3065 1189.62 103.943C1189.62 104.46 1189.64 104.973 1189.66 105.484C1189.8 106.771 1189.88 108.078 1189.88 109.401C1189.87 129.249 1173.79 145.341 1153.94 145.341C1134.09 145.341 1118 129.249 1118 109.401C1118 89.5543 1134.09 73.4651 1153.94 73.4648C1154.87 73.4648 1155.8 73.516 1156.71 73.5859C1157.56 73.6444 1158.41 73.6845 1159.27 73.6846C1179.98 73.6845 1196.76 56.8958 1196.76 36.1904C1196.76 35.8895 1196.75 35.5883 1196.74 35.2891C1196.57 33.8622 1196.76 32.4469 1196.76 30.9736C1196.76 11.127 1212.56 -4.99884 1232.4 -5ZM1227 -156C1246.33 -156 1262 -140.33 1262 -121V-52.8428C1262.65 -50.1315 1263 -47.2993 1263 -44.3848C1263 -34.0546 1258.72 -24.8019 1251.84 -18.3428C1245.5 -11.9556 1236.71 -8 1227 -8C1224.17 -8 1221.42 -8.33844 1218.79 -8.97168C1200.38 -7.00003 1186.03 8.7851 1186.03 27.9717C1186.03 28.4836 1186.05 28.9931 1186.07 29.5C1186.2 30.7747 1186.28 32.0694 1186.28 33.3809C1186.28 53.0518 1170.55 68.9999 1151.14 69C1148.17 68.9999 1145.28 68.6236 1142.52 67.9189C1124.37 68.8274 1109.68 82.755 1107.73 100.492C1108.55 103.475 1109 106.615 1109 109.859C1109 129.266 1093.16 145 1073.62 145C1073.41 145 1073.21 144.995 1073 144.991C1072.79 144.995 1072.59 145 1072.38 145C1052.84 145 1037 129.266 1037 109.859C1037 106.615 1037.44 103.474 1038.27 100.492C1036.35 83.0164 1022.06 69.2398 1004.28 67.9688C1001.58 68.6408 998.761 68.9999 995.86 69C976.454 68.9999 960.723 53.0518 960.723 33.3809C960.723 32.0694 960.795 30.7747 960.932 29.5C960.953 28.9931 960.974 28.4836 960.974 27.9717C960.973 8.53586 946.249 -7.40808 927.491 -9.04004C924.772 -8.36246 921.929 -8 919 -8C899.67 -8 884 -23.67 884 -43V-121C884 -140.33 899.67 -156 919 -156C938.33 -156 954 -140.33 954 -121V-43.6953C954.038 -42.4671 954.154 -41.2728 954.011 -40.0703C954.003 -39.7737 953.988 -39.4751 953.988 -39.1768C953.989 -18.6559 970.4 -2.01669 990.646 -2.0166C991.486 -2.01663 992.32 -2.0563 993.146 -2.11426C994.042 -2.18359 994.947 -2.23438 995.86 -2.23438C1000.23 -2.23425 1004.41 -1.42487 1008.26 0.0507812C1021.86 4.9202 1031.46 17.9227 1031.46 33.1738C1031.46 34.6145 1031.66 35.9983 1031.49 37.3936C1031.48 37.6863 1031.46 37.981 1031.46 38.2754C1031.47 58.5208 1047.99 74.9364 1068.37 74.9365C1068.41 74.9365 1068.44 74.9347 1068.48 74.9346C1069.76 74.795 1071.06 74.7217 1072.38 74.7217C1072.59 74.7217 1072.79 74.7247 1073 74.7295C1073.21 74.7247 1073.41 74.7217 1073.62 74.7217C1074.94 74.7217 1076.24 74.7951 1077.52 74.9346C1077.56 74.9347 1077.59 74.9365 1077.63 74.9365C1098.01 74.9364 1114.53 58.5208 1114.54 38.2754C1114.54 37.981 1114.52 37.6863 1114.51 37.3936C1114.34 35.9983 1114.54 34.6145 1114.54 33.1738C1114.54 15.2549 1127.79 0.438416 1145.21 -1.72754C1147.14 -2.06012 1149.12 -2.23431 1151.14 -2.23438C1152.05 -2.23438 1152.96 -2.18359 1153.85 -2.11426C1154.68 -2.0563 1155.51 -2.01663 1156.35 -2.0166C1175.35 -2.01669 1190.97 -16.663 1192.83 -35.4199C1192.29 -37.8608 1192 -40.397 1192 -43V-121C1192 -140.33 1207.67 -156 1227 -156ZM602.939 -6C622.786 -5.99921 638.875 10.0923 638.875 29.9395C638.875 30.8732 638.824 31.798 638.754 32.7139C638.695 33.5594 638.655 34.4124 638.655 35.2725C638.655 55.9779 655.444 72.7627 676.149 72.7637C676.451 72.7637 676.752 72.7477 677.052 72.7402C678.479 72.568 679.894 72.7637 681.367 72.7637C701.214 72.7643 717.34 88.5578 717.341 108.404C717.341 128.252 701.252 144.343 681.404 144.344C661.557 144.344 645.647 128.463 645.646 108.615C645.647 106.746 645.607 104.699 645.882 102.907C645.771 82.2963 629.034 65.6209 608.397 65.6201C607.881 65.6201 607.367 65.6402 606.855 65.6621C605.569 65.8015 604.263 65.8749 602.939 65.875C583.092 65.875 567 49.7873 567 29.9395C567 10.0918 583.092 -6 602.939 -6ZM681.939 -10C701.786 -9.99921 717.875 6.09229 717.875 25.9395C717.875 26.8732 717.824 27.798 717.754 28.7139C717.695 29.5594 717.655 30.4124 717.655 31.2725C717.655 51.9779 734.444 68.7627 755.149 68.7637C755.451 68.7637 755.752 68.7477 756.052 68.7402C757.479 68.568 758.894 68.7637 760.367 68.7637C761.369 68.7637 762.361 68.8058 763.343 68.8848H839.541C859.274 68.8848 875.27 84.8817 875.271 104.614C875.271 124.347 859.274 140.344 839.541 140.344H760.642C760.602 140.344 760.562 140.342 760.522 140.342C760.483 140.342 760.444 140.344 760.404 140.344C740.557 140.344 724.647 124.463 724.646 104.615C724.647 102.746 724.607 100.699 724.882 98.9072C724.771 78.2963 708.034 61.6209 687.397 61.6201C686.881 61.6201 686.367 61.6402 685.855 61.6621C684.569 61.8015 683.263 61.8749 681.939 61.875C662.092 61.875 646 45.7873 646 25.9395C646 6.0918 662.092 -10 681.939 -10ZM200.404 -12C220.252 -12 236.343 4.08914 236.344 23.9365C236.344 43.7842 220.462 59.6943 200.614 59.6943C198.745 59.6942 196.699 59.7342 194.907 59.459C174.296 59.5698 157.62 76.3065 157.619 96.9434C157.619 97.4597 157.64 97.9731 157.662 98.4844C157.802 99.7708 157.875 101.078 157.875 102.401C157.875 122.249 141.787 138.341 121.939 138.341C102.092 138.341 86.0002 122.249 86 102.401C86.0007 82.5543 102.092 66.4651 121.939 66.4648C122.873 66.4648 123.798 66.516 124.714 66.5859C125.559 66.6444 126.412 66.6845 127.272 66.6846C147.978 66.6845 164.763 49.8958 164.764 29.1904C164.764 28.8895 164.748 28.5883 164.74 28.2891C164.568 26.8622 164.764 25.4469 164.764 23.9736C164.764 4.12698 180.558 -11.9988 200.404 -12ZM1406.4 -68C1426.25 -68 1442.34 -51.9116 1442.34 -32.0645C1442.34 -12.2166 1426.46 3.69434 1406.61 3.69434C1404.75 3.69424 1402.7 3.73416 1400.91 3.45898C1380.3 3.56982 1363.62 20.3065 1363.62 40.9434C1363.62 41.4597 1363.64 41.9731 1363.66 42.4844C1363.8 43.7708 1363.88 45.0779 1363.88 46.4014C1363.87 66.249 1347.79 82.3407 1327.94 82.3408C1308.09 82.3405 1292 66.2489 1292 46.4014C1292 26.5543 1308.09 10.4651 1327.94 10.4648C1328.87 10.4648 1329.8 10.516 1330.71 10.5859C1331.56 10.6444 1332.41 10.6845 1333.27 10.6846C1353.98 10.6845 1370.76 -6.10416 1370.76 -26.8096C1370.76 -27.1105 1370.75 -27.4117 1370.74 -27.7109C1370.57 -29.1378 1370.76 -30.5531 1370.76 -32.0264C1370.76 -51.873 1386.56 -67.9988 1406.4 -68ZM522.938 -4C542.785 -4 558.876 12.0898 558.876 31.9375C558.876 51.7854 542.785 67.876 522.938 67.876C503.09 67.8758 487 51.7853 487 31.9375C487 12.0898 503.09 -3.99982 522.938 -4ZM763.938 -8C783.785 -8 799.876 8.08975 799.876 27.9375C799.876 47.7854 783.785 63.876 763.938 63.876C744.09 63.8758 728 47.7853 728 27.9375C728 8.08984 744.09 -7.99982 763.938 -8ZM120.404 -89C123.312 -88.9999 126.138 -88.6518 128.845 -88H199.256C218.989 -88 234.985 -72.0032 234.985 -52.2705C234.985 -32.5379 218.988 -16.541 199.256 -16.541H120.356C117.764 -16.541 115.236 -16.8203 112.801 -17.3447C93.1894 -16.1316 77.6554 0.154663 77.6553 20.0713C77.6553 20.9314 77.6954 21.7844 77.7539 22.6299C77.8239 23.5457 77.875 24.4705 77.875 25.4043C77.8747 45.2515 61.7865 61.343 41.9395 61.3438C22.0917 61.3438 6.00027 45.252 6 25.4043C6.00008 5.55646 22.0916 -10.5312 41.9395 -10.5312C43.2628 -10.5312 44.5692 -10.4578 45.8555 -10.3184C46.3669 -10.2964 46.881 -10.2764 47.3975 -10.2764C68.0343 -10.2771 84.771 -26.9525 84.8818 -47.5635C84.7124 -48.6667 84.6618 -49.8663 84.6484 -51.0615C84.6351 -51.4629 84.627 -51.8659 84.627 -52.2705C84.627 -52.6721 84.6353 -53.0723 84.6484 -53.4707C84.7547 -73.2253 100.623 -89 120.404 -89ZM438.425 -314.202C458.158 -314.202 474.154 -298.205 474.154 -278.473V-42.0459C474.154 -22.3132 458.158 -6.31641 438.425 -6.31641C418.692 -6.31665 402.696 -22.3133 402.696 -42.0459V-278.473C402.696 -298.205 418.692 -314.202 438.425 -314.202ZM1001.94 -161C1021.79 -160.999 1037.58 -144.873 1037.58 -125.026C1037.58 -123.553 1037.78 -122.138 1037.6 -120.711C1037.6 -120.412 1037.58 -120.111 1037.58 -119.81C1037.58 -99.1042 1054.37 -82.3155 1075.07 -82.3154C1075.93 -82.3155 1076.78 -82.3556 1077.63 -82.4141C1078.55 -82.484 1079.47 -82.5352 1080.4 -82.5352C1100.25 -82.5349 1116.34 -66.4457 1116.34 -46.5986C1116.34 -26.7511 1100.25 -10.6595 1080.4 -10.6592C1060.56 -10.6592 1044.47 -26.7509 1044.47 -46.5986C1044.47 -47.9221 1044.54 -49.2292 1044.68 -50.5156C1044.7 -51.0269 1044.72 -51.5403 1044.72 -52.0566C1044.72 -72.6935 1028.05 -89.4302 1007.44 -89.541C1005.64 -89.2658 1003.6 -89.3058 1001.73 -89.3057C981.881 -89.3059 966 -105.217 966 -125.064C966.001 -144.912 982.092 -161 1001.94 -161Z" fill="white"/>
</svg>
