<svg width="1080" height="1080" viewBox="0 0 1080 1080" fill="none" xmlns="http://www.w3.org/2000/svg">
<g clip-path="url(#clip0_152_444)">


<path d="M1025.29 135.507C1023.35 135.507 1021.45 135.318 1019.62 134.963H906.636C890.62 134.963 877.637 121.979 877.637 105.963C877.637 89.9469 890.62 76.9631 906.636 76.9629H1019.09C1021.1 76.5419 1023.18 76.3185 1025.32 76.3184C1026.54 76.3184 1027.71 76.1573 1028.89 76.2998C1029.14 76.306 1029.38 76.3184 1029.63 76.3184C1046.75 76.3177 1060.64 62.4393 1060.64 45.3184C1060.64 44.6072 1060.6 43.9022 1060.55 43.2031C1060.5 42.4457 1060.45 41.6804 1060.45 40.9082C1060.45 40.0525 1060.49 39.2054 1060.56 38.3682V-89.4561C1060.56 -105.773 1073.79 -119 1090.11 -119C1106.42 -119 1119.65 -105.772 1119.65 -89.4561V37.1504C1119.81 38.3811 1119.89 39.6353 1119.89 40.9082C1119.89 57.3199 1106.58 70.623 1090.17 70.623C1089.07 70.623 1087.99 70.5626 1086.93 70.4473C1086.51 70.4292 1086.08 70.4121 1085.66 70.4121C1068.59 70.4127 1054.75 84.2014 1054.66 101.244C1054.89 102.726 1054.86 104.418 1054.86 105.963C1054.86 122.375 1041.7 135.507 1025.29 135.507ZM836.486 72.3125C820.076 72.3115 807.016 58.9781 807.016 42.5674C807.016 41.3491 806.854 40.179 806.996 38.999C807.002 38.7515 807.016 38.502 807.016 38.2529C807.015 21.1323 793.135 7.25012 776.015 7.25C775.304 7.25 774.598 7.28369 773.899 7.33203C773.142 7.38989 772.378 7.43164 771.605 7.43164C767.437 7.43164 763.469 6.57214 759.868 5.02246C745.789 2.7677 735.032 -9.43237 735.032 -24.1465V-89.2373C735.032 -105.554 748.26 -118.78 764.576 -118.78C780.893 -118.78 794.12 -105.554 794.12 -89.2373V-41.6758C798.607 -36.4707 801.319 -29.6931 801.319 -22.2822C801.319 -21.188 801.259 -20.1075 801.144 -19.0439C801.125 -18.6212 801.108 -18.1965 801.108 -17.7695C801.109 -0.705444 814.898 13.1339 831.94 13.2256C833.422 12.998 835.115 13.0314 836.66 13.0312C837.76 13.0312 838.845 13.0918 839.913 13.207C840.672 13.1484 841.44 13.1182 842.214 13.1182H904.214C920.506 13.1182 933.714 26.3258 933.714 42.6182C933.714 58.9105 920.506 72.1182 904.214 72.1182H842.214C841.596 72.1182 840.983 72.0979 840.375 72.0605C839.102 72.2269 837.804 72.3125 836.486 72.3125ZM1090.26 203.402C1073.94 203.402 1060.71 190.175 1060.71 173.858V108.618C1060.71 108.296 1060.72 107.974 1060.73 107.654C1060.72 107.332 1060.71 107.009 1060.71 106.685C1060.71 90.2737 1074.02 76.9702 1090.43 76.9697C1091.2 76.9697 1091.97 77.0125 1092.73 77.0703C1093.42 77.1187 1094.13 77.1514 1094.84 77.1514C1111.96 77.1512 1125.84 63.2693 1125.84 46.1484C1125.84 45.8997 1125.83 45.6506 1125.82 45.4033C1125.68 44.2235 1125.84 43.0531 1125.84 41.835C1125.84 25.4243 1138.9 12.0901 1155.31 12.0889C1171.72 12.0889 1185.03 25.3925 1185.03 41.8037C1185.03 58.2153 1171.9 71.3708 1155.49 71.3711C1153.94 71.371 1152.25 71.4043 1150.77 71.1768C1133.72 71.2684 1119.94 85.1078 1119.93 102.172C1119.93 102.599 1119.95 103.024 1119.97 103.446C1120.09 104.51 1120.15 105.59 1120.15 106.685C1120.15 108.23 1120.03 109.747 1119.8 111.229V173.858C1119.8 190.175 1106.57 203.402 1090.26 203.402ZM582.388 72C566.095 72 552.888 58.7924 552.888 42.5C552.888 26.2076 566.095 13 582.388 13H644.388C660.68 13 673.888 26.2076 673.888 42.5C673.888 58.7924 660.68 72 644.388 72H582.388ZM1032.48 272.315C1016.07 272.315 1002.77 259.01 1002.77 242.599C1002.77 241.826 1002.81 241.061 1002.87 240.304C1002.92 239.605 1002.95 238.9 1002.95 238.188C1002.95 221.068 989.068 207.188 971.947 207.188C971.698 207.188 971.449 207.201 971.201 207.207C970.021 207.349 968.851 207.188 967.633 207.188C964.767 207.187 961.996 206.789 959.373 206.044H918.482C915.644 206.944 912.622 207.432 909.486 207.432C908.714 207.432 907.949 207.39 907.191 207.332C906.492 207.284 905.787 207.25 905.076 207.25C887.955 207.25 874.076 221.132 874.075 238.253C874.075 238.502 874.089 238.751 874.095 238.999C874.237 240.179 874.075 241.349 874.075 242.567C874.075 258.978 861.016 272.311 844.605 272.312C842.845 272.312 841.12 272.159 839.443 271.865C839.384 271.866 839.324 271.867 839.264 271.867H777.264C761.248 271.867 748.264 258.883 748.264 242.867C748.264 226.851 761.248 213.867 777.264 213.867H837.387C839.642 213.322 842 213.031 844.431 213.031C845.976 213.031 847.669 212.998 849.15 213.226C864.084 213.145 876.519 202.509 879.368 188.397C877.774 184.77 876.888 180.76 876.888 176.544C876.888 160.252 890.095 147.044 906.388 147.044H966.388C973.155 147.044 979.389 149.324 984.366 153.156C992.115 158.463 997.17 167.372 997.17 177.543C997.17 179.088 997.203 180.781 996.976 182.263C997.067 199.305 1010.91 213.094 1027.97 213.095C1028.4 213.095 1028.82 213.078 1029.25 213.06C1030.31 212.944 1031.39 212.884 1032.48 212.884C1048.89 212.884 1062.2 226.187 1062.2 242.599C1062.2 259.01 1048.89 272.315 1032.48 272.315ZM838.917 398.935C822.506 398.934 809.201 385.631 809.2 369.22C809.2 352.808 822.332 339.652 838.743 339.652C840.289 339.652 841.981 339.62 843.463 339.848C860.02 339.759 873.505 326.694 874.261 310.304C874.017 308.771 873.888 307.2 873.888 305.599C873.888 303.761 874.054 301.964 874.369 300.223C876.373 285.759 888.783 274.622 903.798 274.622C906.808 274.622 909.714 275.072 912.452 275.904C927.454 273.738 938.982 260.833 938.982 245.23C938.982 244.803 938.965 244.379 938.947 243.956C938.832 242.893 938.772 241.812 938.771 240.718C938.771 224.306 952.075 211 968.486 211C970.091 211 971.665 211.129 973.201 211.374C987.903 213.123 999.184 225.506 999.184 240.704C999.184 242.249 999.217 243.941 998.989 245.423C999.081 262.466 1012.92 276.254 1029.98 276.255C1030.41 276.255 1030.84 276.238 1031.26 276.22C1032.32 276.104 1033.4 276.044 1034.5 276.044C1034.62 276.044 1034.74 276.047 1034.86 276.049C1035.42 276.017 1035.98 276 1036.54 276H1101.78C1102.5 276 1103.2 276.027 1103.9 276.077C1104.45 276.048 1104.99 276.031 1105.54 276.031C1107.09 276.031 1108.78 275.998 1110.26 276.226C1127.31 276.134 1141.09 262.294 1141.09 245.23C1141.09 244.804 1141.08 244.379 1141.06 243.956C1140.94 242.893 1140.88 241.812 1140.88 240.718C1140.88 224.306 1154.19 211 1170.6 211C1187.01 211 1200.32 224.306 1200.32 240.718C1200.31 257.129 1187.01 270.431 1170.6 270.432C1169.83 270.432 1169.06 270.39 1168.3 270.332C1167.6 270.284 1166.9 270.25 1166.19 270.25C1149.07 270.25 1135.19 284.132 1135.19 301.253C1135.19 301.502 1135.2 301.751 1135.21 301.999C1135.35 303.179 1135.19 304.349 1135.19 305.567C1135.19 321.978 1122.13 335.312 1105.72 335.312C1104.47 335.312 1103.23 335.235 1102.02 335.085C1101.94 335.086 1101.86 335.087 1101.78 335.087H1039.3C1037.74 335.341 1036.13 335.476 1034.5 335.476C1018.09 335.475 1004.78 322.17 1004.78 305.759C1004.78 304.987 1004.82 304.221 1004.88 303.464C1004.93 302.765 1004.96 302.06 1004.96 301.349C1004.96 284.228 991.083 270.349 973.962 270.349C973.713 270.349 973.463 270.361 973.216 270.367C972.293 270.479 971.377 270.405 970.438 270.367C969.793 270.409 969.142 270.432 968.486 270.432C967.714 270.432 966.949 270.39 966.191 270.332C965.492 270.284 964.787 270.25 964.076 270.25C947.536 270.25 934.023 283.207 933.125 299.522C933.381 301.09 933.516 302.699 933.516 304.339C933.516 307.909 932.886 311.333 931.731 314.504C928 326.557 916.903 335.312 903.605 335.312C900.728 335.312 897.945 334.903 895.313 334.14C880.118 336.135 868.388 349.136 868.388 364.875C868.388 365.124 868.401 365.374 868.407 365.621C868.55 366.801 868.388 367.971 868.388 369.189C868.387 385.6 855.328 398.934 838.917 398.935ZM773.71 398.935C757.298 398.935 743.994 385.63 743.994 369.219C743.994 352.807 757.298 339.503 773.71 339.503C790.122 339.503 803.426 352.807 803.426 369.219C803.426 385.63 790.122 398.934 773.71 398.935ZM904.27 464.064C887.858 464.064 874.552 450.758 874.552 434.347C874.552 417.935 887.858 404.632 904.27 404.632C905.364 404.632 906.444 404.693 907.508 404.809C907.931 404.827 908.355 404.844 908.782 404.844C925.846 404.843 939.686 391.054 939.777 374.012C939.553 372.552 939.582 370.887 939.583 369.36C939.583 369.338 939.582 369.315 939.582 369.292C939.582 368.653 939.605 368.019 939.645 367.391C940.56 352.744 951.989 341.116 966.539 339.863C966.645 339.854 966.752 339.843 966.858 339.835C966.897 339.832 966.937 339.83 966.976 339.827C967.685 339.776 968.402 339.748 969.125 339.748H1034.37C1050.68 339.748 1063.91 352.976 1063.91 369.292C1063.91 385.608 1050.68 398.836 1034.37 398.836H971.586C970.773 398.902 969.95 398.937 969.119 398.937C967.901 398.937 966.731 399.098 965.551 398.955C965.303 398.949 965.054 398.937 964.806 398.937C947.685 398.937 933.803 412.816 933.803 429.937C933.803 430.648 933.835 431.353 933.884 432.052C933.942 432.809 933.984 433.574 933.984 434.347C933.984 450.758 920.681 464.064 904.27 464.064ZM1163.6 594.493C1147.19 594.493 1133.88 581.188 1133.88 564.776C1133.88 563.682 1133.94 562.602 1134.06 561.538C1134.08 561.115 1134.09 560.69 1134.09 560.263C1134.09 543.199 1120.31 529.36 1103.26 529.269C1101.78 529.496 1100.09 529.463 1098.54 529.463C1082.13 529.463 1069 516.307 1069 499.896C1069 499.863 1069 499.83 1069 499.798C1069 499.765 1069 499.733 1069 499.7V435.033C1069 434.951 1069 434.87 1069 434.788C1069 434.725 1069 434.662 1069 434.599C1069 418.187 1082.13 405.031 1098.54 405.031C1100.09 405.031 1101.78 404.998 1103.26 405.226C1120.31 405.134 1134.09 391.294 1134.09 374.23C1134.09 373.804 1134.08 373.379 1134.06 372.956C1133.94 371.893 1133.88 370.812 1133.88 369.718C1133.88 353.306 1147.19 340 1163.6 340C1163.62 340 1163.65 340.001 1163.67 340.001C1163.7 340.001 1163.72 340 1163.74 340C1180.16 340 1193.46 353.306 1193.46 369.718C1193.46 370.812 1193.4 371.893 1193.28 372.956C1193.26 373.379 1193.25 373.803 1193.25 374.23C1193.25 391.295 1207.04 405.134 1224.08 405.226C1225.56 404.998 1227.25 405.031 1228.8 405.031C1245.21 405.031 1258.34 418.187 1258.34 434.599C1258.34 451.01 1245.04 464.312 1228.62 464.312C1212.21 464.312 1199.15 450.978 1199.15 434.567C1199.15 433.349 1198.99 432.179 1199.13 430.999C1199.14 430.751 1199.15 430.502 1199.15 430.253C1199.15 413.132 1185.27 399.25 1168.15 399.25C1167.44 399.25 1166.74 399.284 1166.04 399.332C1166.04 399.332 1166.03 399.333 1166.03 399.333C1165.85 399.348 1165.67 399.36 1165.49 399.371C1165.48 399.372 1165.47 399.372 1165.46 399.373C1165.29 399.383 1165.13 399.393 1164.97 399.4C1164.56 399.42 1164.15 399.432 1163.74 399.432H1163.6C1163.19 399.432 1162.78 399.42 1162.38 399.4C1162.21 399.393 1162.05 399.383 1161.89 399.373C1161.88 399.372 1161.87 399.372 1161.86 399.371C1161.68 399.36 1161.49 399.348 1161.32 399.333C1161.31 399.333 1161.31 399.332 1161.3 399.332C1160.6 399.284 1159.9 399.25 1159.19 399.25C1142.07 399.25 1128.19 413.132 1128.19 430.253C1128.19 430.502 1128.2 430.751 1128.21 430.999C1128.35 432.179 1128.19 433.349 1128.19 434.567C1128.19 435.398 1128.15 436.22 1128.09 437.033V497.461C1128.15 498.274 1128.19 499.096 1128.19 499.926C1128.19 501.144 1128.35 502.314 1128.21 503.494C1128.2 503.742 1128.19 503.991 1128.19 504.24C1128.19 521.361 1142.07 535.243 1159.19 535.243C1159.9 535.243 1160.61 535.21 1161.3 535.162C1161.49 535.147 1161.67 535.136 1161.86 535.124C1161.87 535.123 1161.88 535.122 1161.89 535.121C1162.04 535.112 1162.19 535.104 1162.34 535.097C1162.76 535.076 1163.18 535.062 1163.6 535.062C1163.62 535.062 1163.65 535.062 1163.67 535.062C1163.7 535.062 1163.72 535.062 1163.74 535.062C1164.17 535.062 1164.59 535.076 1165 535.097C1165.15 535.104 1165.3 535.112 1165.45 535.121C1165.46 535.122 1165.48 535.123 1165.49 535.124C1165.67 535.136 1165.86 535.148 1166.04 535.163C1166.74 535.211 1167.44 535.243 1168.15 535.243C1185.28 535.243 1199.15 521.361 1199.15 504.24C1199.15 503.991 1199.14 503.742 1199.13 503.494C1198.99 502.314 1199.15 501.144 1199.15 499.926C1199.15 483.515 1212.21 470.182 1228.62 470.181C1245.04 470.181 1258.34 483.484 1258.34 499.896C1258.34 516.307 1245.21 529.463 1228.8 529.463C1227.25 529.463 1225.56 529.496 1224.08 529.269C1207.04 529.36 1193.25 543.199 1193.25 560.263C1193.25 560.69 1193.26 561.115 1193.28 561.538C1193.4 562.602 1193.46 563.682 1193.46 564.776C1193.46 581.188 1180.16 594.493 1163.74 594.493H1163.6ZM838.945 594.833C822.629 594.833 809.401 581.606 809.401 565.289V438.174C809.271 437.044 809.202 435.896 809.202 434.731C809.202 418.32 822.506 405.016 838.918 405.016C839.895 405.016 840.861 405.065 841.813 405.157C842.315 405.182 842.82 405.195 843.328 405.195C860.449 405.195 874.329 391.315 874.329 374.194C874.329 374.009 874.328 373.824 874.324 373.64C874.166 372.399 874.084 371.134 874.084 369.851C874.084 353.439 887.388 340.134 903.8 340.134C920.211 340.134 933.515 353.439 933.516 369.851C933.515 386.262 920.211 399.566 903.8 399.566C902.25 399.566 900.727 399.448 899.241 399.219C882.204 399.317 868.422 413.156 868.422 430.217C868.422 430.607 868.431 430.996 868.445 431.383C868.569 432.482 868.634 433.599 868.634 434.731C868.634 435.724 868.584 436.705 868.489 437.672V565.289C868.489 581.606 855.262 594.833 838.945 594.833ZM773.298 464.447C756.887 464.446 743.828 451.113 743.827 434.702C743.827 433.484 743.666 432.314 743.809 431.134C743.815 430.886 743.827 430.637 743.827 430.388C743.826 413.267 729.948 399.385 712.827 399.385C712.116 399.385 711.411 399.418 710.712 399.467C709.954 399.525 709.189 399.566 708.417 399.566C692.006 399.566 678.701 386.263 678.7 369.853C678.7 353.441 692.006 340.135 708.417 340.135C724.829 340.135 738.132 353.441 738.132 369.853C738.132 370.947 738.071 372.027 737.956 373.091C737.938 373.514 737.92 373.938 737.92 374.365C737.92 391.429 751.709 405.268 768.752 405.36C770.234 405.133 771.926 405.166 773.472 405.166C789.883 405.166 803.016 418.322 803.016 434.733C803.015 451.145 789.709 464.447 773.298 464.447ZM1163.59 463.216C1147.18 463.216 1133.88 449.911 1133.88 433.499C1133.88 417.087 1147.18 403.783 1163.59 403.783C1180.01 403.783 1193.31 417.088 1193.31 433.499C1193.31 449.911 1180.01 463.216 1163.59 463.216ZM903.717 529.574C887.305 529.574 874.001 516.271 874 499.859C874 483.448 887.131 470.292 903.543 470.292C905.089 470.292 906.781 470.259 908.263 470.486C925.305 470.395 939.094 456.555 939.095 439.491C939.095 439.064 939.078 438.64 939.06 438.217C938.944 437.153 938.883 436.073 938.883 434.979C938.883 418.567 952.186 405.261 968.598 405.261C968.768 405.261 968.938 405.265 969.108 405.268C969.278 405.265 969.448 405.261 969.618 405.261C986.03 405.261 999.333 418.567 999.333 434.979C999.333 436.073 999.272 437.153 999.156 438.217C999.138 438.64 999.121 439.064 999.121 439.491C999.122 456.555 1012.91 470.395 1029.95 470.486C1031.44 470.259 1033.13 470.292 1034.67 470.292C1051.08 470.292 1064.22 483.448 1064.22 499.859C1064.22 516.271 1050.91 529.574 1034.5 529.574C1018.09 529.573 1005.03 516.239 1005.03 499.828C1005.03 498.61 1004.87 497.44 1005.01 496.26C1005.02 496.012 1005.03 495.763 1005.03 495.515C1005.03 478.394 991.149 464.512 974.028 464.512C973.317 464.512 972.611 464.544 971.912 464.593C971.155 464.651 970.39 464.693 969.618 464.693C969.448 464.693 969.278 464.69 969.108 464.688C968.939 464.69 968.768 464.693 968.598 464.693C967.825 464.693 967.06 464.651 966.303 464.593C965.604 464.544 964.899 464.512 964.188 464.512C947.067 464.512 933.188 478.394 933.188 495.515C933.188 495.763 933.2 496.012 933.206 496.26C933.349 497.44 933.188 498.61 933.188 499.828C933.187 516.239 920.127 529.573 903.717 529.574ZM643.953 594.833C627.542 594.833 614.238 581.529 614.237 565.117C614.237 548.706 627.542 535.401 643.953 535.4C644.94 535.4 645.915 535.45 646.877 535.544C647.37 535.567 647.866 535.58 648.364 535.58C664.911 535.58 678.429 522.616 679.318 506.292C678.913 504.336 678.699 502.31 678.699 500.233C678.699 483.822 692.003 470.518 708.415 470.518C708.524 470.518 708.632 470.521 708.74 470.522C708.772 470.522 708.803 470.521 708.835 470.521C725.247 470.521 738.551 483.825 738.551 500.236C738.551 502.442 738.31 504.592 737.854 506.661C738.909 522.826 752.35 535.611 768.782 535.611C769.173 535.611 769.561 535.602 769.948 535.588C771.047 535.465 772.165 535.399 773.297 535.399C789.708 535.4 803.013 548.705 803.013 565.116C803.012 581.528 789.708 594.832 773.297 594.832C756.885 594.832 743.581 581.528 743.581 565.116C743.581 564.131 743.631 563.158 743.725 562.197C743.748 561.703 743.761 561.205 743.761 560.705C743.761 543.584 729.881 529.704 712.76 529.704C712.735 529.704 712.71 529.705 712.686 529.705C711.425 529.868 710.14 529.952 708.835 529.952C708.719 529.952 708.603 529.951 708.487 529.949C708.463 529.949 708.439 529.949 708.415 529.949C706.886 529.949 705.383 529.833 703.916 529.61C687.046 529.9 673.458 543.662 673.458 560.602C673.458 560.996 673.468 561.389 673.482 561.779C673.605 562.875 673.669 563.989 673.669 565.117C673.669 581.529 660.365 594.833 643.953 594.833ZM968.716 593.433C952.304 593.433 939 580.128 939 563.716C939 547.304 952.304 534 968.716 534C985.127 534 998.431 547.304 998.432 563.716C998.432 580.128 985.127 593.432 968.716 593.433ZM708.529 789.118C692.118 789.118 678.814 775.812 678.814 759.4C678.815 758.306 678.876 757.226 678.991 756.162C679.009 755.739 679.026 755.315 679.026 754.888C679.026 737.824 665.237 723.984 648.194 723.893C646.712 724.12 645.02 724.087 643.475 724.087C627.063 724.087 613.931 710.931 613.931 694.52C613.931 678.108 627.237 664.806 643.648 664.806C660.059 664.807 673.119 678.14 673.119 694.551C673.119 695.769 673.28 696.939 673.138 698.119C673.131 698.367 673.119 698.616 673.119 698.865C673.12 715.986 686.998 729.868 704.119 729.868C704.83 729.868 705.535 729.834 706.234 729.786C706.237 729.786 706.24 729.786 706.243 729.786C706.422 729.772 706.602 729.759 706.782 729.748C706.796 729.747 706.81 729.746 706.823 729.745C706.984 729.735 707.144 729.726 707.306 729.719C707.711 729.699 708.119 729.687 708.529 729.687C708.554 729.687 708.578 729.687 708.603 729.688C708.627 729.687 708.651 729.687 708.676 729.687C709.085 729.687 709.492 729.699 709.897 729.719C710.061 729.726 710.224 729.736 710.387 729.746C710.397 729.747 710.408 729.747 710.419 729.748C710.6 729.759 710.781 729.771 710.962 729.786C710.964 729.786 710.967 729.786 710.97 729.786C711.669 729.834 712.374 729.868 713.085 729.868C730.206 729.868 744.085 715.986 744.086 698.865C744.086 698.616 744.073 698.367 744.066 698.119C743.924 696.939 744.086 695.769 744.086 694.551C744.086 693.721 744.121 692.899 744.187 692.086V631.658C744.121 630.845 744.086 630.023 744.086 629.192C744.086 627.974 743.924 626.804 744.066 625.624C744.073 625.376 744.086 625.127 744.086 624.878C744.085 607.757 730.206 593.875 713.085 593.875C712.374 593.875 711.67 593.908 710.972 593.956C710.788 593.971 710.604 593.984 710.419 593.995C710.407 593.996 710.395 593.997 710.383 593.998C710.234 594.007 710.084 594.016 709.935 594.022C709.517 594.043 709.098 594.057 708.676 594.057H708.529C708.107 594.057 707.687 594.043 707.27 594.022C707.122 594.016 706.974 594.007 706.827 593.998C706.812 593.997 706.797 593.996 706.782 593.995C706.599 593.984 706.416 593.971 706.233 593.956C705.535 593.908 704.83 593.875 704.119 593.875C686.998 593.875 673.12 607.757 673.119 624.878C673.119 625.127 673.131 625.376 673.138 625.624C673.28 626.804 673.119 627.974 673.119 629.192C673.118 645.603 660.059 658.937 643.648 658.938C627.237 658.938 613.931 645.634 613.931 629.223C613.931 612.811 627.063 599.655 643.475 599.655C645.02 599.655 646.712 599.622 648.194 599.85C665.237 599.758 679.026 585.919 679.026 568.855C679.026 568.428 679.009 568.003 678.991 567.58C678.876 566.516 678.815 565.436 678.814 564.342C678.815 547.93 692.118 534.625 708.529 534.625C708.554 534.625 708.578 534.626 708.603 534.626C708.627 534.626 708.651 534.625 708.676 534.625C725.087 534.625 738.39 547.93 738.39 564.342C738.39 565.436 738.329 566.516 738.214 567.58C738.196 568.003 738.179 568.428 738.179 568.855C738.179 585.919 751.968 599.758 769.011 599.85C770.493 599.622 772.185 599.655 773.73 599.655C790.142 599.655 803.273 612.811 803.273 629.223C803.273 629.296 803.272 629.369 803.271 629.441C803.272 629.514 803.273 629.586 803.273 629.658V694.324C803.273 694.357 803.273 694.389 803.272 694.422C803.273 694.454 803.273 694.487 803.273 694.52C803.273 710.931 790.142 724.087 773.73 724.087C772.185 724.087 770.493 724.12 769.011 723.893C751.968 723.984 738.179 737.824 738.179 754.888C738.179 755.315 738.196 755.739 738.214 756.162C738.329 757.226 738.39 758.306 738.39 759.4C738.39 775.812 725.087 789.118 708.676 789.118H708.529ZM1164.6 726.312C1148.19 726.312 1135.13 712.978 1135.13 696.567C1135.13 695.349 1134.97 694.179 1135.11 692.999C1135.11 692.751 1135.13 692.502 1135.13 692.253C1135.13 675.132 1121.25 661.25 1104.13 661.25C1103.42 661.25 1102.71 661.284 1102.01 661.332C1101.25 661.39 1100.49 661.432 1099.72 661.432C1083.31 661.431 1070 648.129 1070 631.718C1070 631.395 1070.01 631.073 1070.02 630.752C1070.01 630.431 1070 630.108 1070 629.784V564.544C1070 548.228 1083.23 535 1099.54 535C1115.86 535 1129.09 548.227 1129.09 564.544V627.182C1129.31 628.661 1129.43 630.176 1129.43 631.718C1129.43 632.812 1129.37 633.893 1129.25 634.956C1129.24 635.379 1129.22 635.804 1129.22 636.23C1129.22 653.294 1143.01 667.134 1160.05 667.226C1161.53 666.998 1163.23 667.031 1164.77 667.031C1181.18 667.031 1194.31 680.187 1194.31 696.599C1194.31 713.01 1181.01 726.312 1164.6 726.312ZM708.68 657.84C692.268 657.84 678.964 644.536 678.964 628.124C678.964 611.712 692.268 598.408 708.68 598.408C725.091 598.408 738.396 611.712 738.396 628.124C738.396 644.536 725.091 657.84 708.68 657.84ZM1099.39 854.402C1083.08 854.402 1069.85 841.175 1069.85 824.858V697.034C1069.78 696.197 1069.74 695.349 1069.74 694.493C1069.74 693.721 1069.78 692.956 1069.84 692.199C1069.89 691.5 1069.92 690.794 1069.92 690.083C1069.92 672.962 1056.04 659.084 1038.92 659.083C1038.67 659.083 1038.42 659.096 1038.17 659.103C1036.99 659.245 1035.82 659.083 1034.6 659.083C1033.14 659.083 1031.7 658.977 1030.29 658.775H899.636C883.434 658.775 870.299 645.642 870.299 629.439C870.299 613.237 883.433 600.103 899.636 600.103H1031.06C1032.21 599.967 1033.39 599.896 1034.57 599.896C1050.99 599.896 1064.14 613.027 1064.14 629.438C1064.14 630.984 1064.17 632.676 1063.95 634.158C1064.04 651.201 1077.88 664.99 1094.94 664.99C1095.37 664.99 1095.79 664.973 1096.22 664.955C1097.28 664.84 1098.36 664.778 1099.46 664.778C1115.87 664.779 1129.17 678.082 1129.17 694.493C1129.17 695.768 1129.09 697.024 1128.94 698.257V824.858C1128.94 841.175 1115.71 854.402 1099.39 854.402ZM709.359 919.299C692.948 919.299 679.643 905.995 679.643 889.584C679.643 873.172 692.774 860.017 709.186 860.017C710.731 860.017 712.423 859.983 713.905 860.211C730.824 860.12 744.534 846.481 744.733 829.588C744.462 827.979 744.318 826.325 744.318 824.639V762.342C744.223 761.374 744.173 760.393 744.173 759.4C744.174 742.989 757.48 729.687 773.891 729.687C774.663 729.687 775.428 729.728 776.186 729.786C776.885 729.834 777.59 729.868 778.301 729.868C795.422 729.868 809.3 715.986 809.301 698.865C809.301 698.616 809.288 698.367 809.282 698.119C809.14 696.939 809.301 695.769 809.301 694.551C809.301 678.14 822.361 664.807 838.771 664.806C840.09 664.806 841.387 664.892 842.66 665.059C843.268 665.021 843.881 665 844.499 665H906.499C922.791 665 936 678.208 936 694.5C936 710.792 922.792 724 906.5 724H844.5C843.726 724 842.958 723.971 842.198 723.912C841.131 724.027 840.045 724.087 838.945 724.087C837.4 724.087 835.707 724.12 834.226 723.893C817.183 723.984 803.394 737.824 803.394 754.888C803.394 755.315 803.411 755.739 803.429 756.162C803.544 757.226 803.605 758.306 803.605 759.4C803.605 760.566 803.536 761.716 803.405 762.847V818.98C803.767 820.832 803.958 822.745 803.958 824.703C803.957 841.114 790.651 854.418 774.24 854.418C773.468 854.418 772.704 854.375 771.946 854.317C771.247 854.269 770.541 854.236 769.83 854.236C752.709 854.237 738.831 868.119 738.83 885.239C738.83 885.488 738.843 885.738 738.85 885.985C738.992 887.165 738.83 888.336 738.83 889.554C738.829 905.964 725.77 919.298 709.359 919.299ZM1099.39 984.397C1083.08 984.397 1069.85 971.17 1069.85 954.854V892.021C1069.78 891.207 1069.75 890.384 1069.75 889.554C1069.75 888.335 1069.59 887.165 1069.73 885.985C1069.74 885.738 1069.75 885.489 1069.75 885.24C1069.75 868.119 1055.87 854.236 1038.75 854.236C1038.04 854.236 1037.33 854.27 1036.63 854.318C1035.88 854.376 1035.11 854.419 1034.34 854.419C1017.93 854.419 1004.62 841.115 1004.62 824.704C1004.62 824.133 1004.64 823.565 1004.67 823.002C1004.64 822.316 1004.62 821.638 1004.7 820.957C1004.71 820.71 1004.72 820.461 1004.72 820.212C1004.72 803.091 990.842 789.209 973.722 789.209C973.01 789.209 972.305 789.242 971.605 789.29C970.848 789.348 970.084 789.391 969.312 789.391C967.765 789.391 966.246 789.272 964.763 789.044H908.347C906.864 789.272 905.345 789.391 903.798 789.391C903.026 789.391 902.261 789.348 901.504 789.29C900.805 789.242 900.099 789.209 899.388 789.209C882.267 789.209 868.388 803.091 868.388 820.212C868.388 820.461 868.401 820.71 868.407 820.957C868.55 822.137 868.388 823.307 868.388 824.525C868.387 840.936 855.328 854.271 838.917 854.271C822.506 854.271 809.201 840.968 809.2 824.557C809.2 808.145 822.331 794.989 838.743 794.989C840.289 794.989 841.981 794.956 843.463 795.184C860.506 795.092 874.294 781.253 874.295 764.188C874.295 763.762 874.278 763.337 874.26 762.914C874.144 761.85 874.083 760.77 874.083 759.676C874.083 743.264 887.386 729.958 903.798 729.958C904.562 729.958 905.319 729.987 906.068 730.044H966.827C966.888 730.044 966.95 730.047 967.011 730.047C967.77 729.989 968.537 729.958 969.312 729.958C985.723 729.958 999.026 743.264 999.026 759.676C999.026 760.77 998.965 761.85 998.85 762.914C998.831 763.337 998.814 763.762 998.814 764.188C998.815 781.253 1012.6 795.092 1029.65 795.184C1031.06 794.967 1032.66 794.987 1034.14 794.989C1034.21 794.989 1034.27 794.986 1034.34 794.986C1035.11 794.986 1035.88 795.017 1036.64 795.075C1044.81 795.687 1052.01 799.572 1056.96 805.435C1061.38 810.623 1064.05 817.351 1064.05 824.704C1064.05 825.798 1063.99 826.879 1063.88 827.942C1063.86 828.365 1063.84 828.79 1063.84 829.217C1063.84 846.281 1077.63 860.12 1094.67 860.212C1096.16 859.984 1097.85 860.018 1099.39 860.018C1115.81 860.018 1128.94 873.173 1128.94 889.585C1128.94 889.615 1128.94 889.645 1128.94 889.675C1128.94 889.704 1128.94 889.734 1128.94 889.764V954.854C1128.94 971.17 1115.71 984.397 1099.39 984.397ZM1035.72 789.433C1019.3 789.433 1006 776.128 1006 759.716C1006 743.304 1019.3 730 1035.72 730C1052.13 730 1065.43 743.304 1065.43 759.716C1065.43 776.128 1052.13 789.432 1035.72 789.433ZM839.184 984.397C822.867 984.397 809.64 971.171 809.64 954.854V894.698C809.351 893.037 809.2 891.329 809.2 889.585C809.2 873.173 822.331 860.018 838.743 860.018C840.289 860.018 841.981 859.984 843.463 860.212C860.506 860.12 874.294 846.281 874.295 829.217C874.295 828.79 874.278 828.365 874.26 827.942C874.144 826.879 874.083 825.798 874.083 824.704C874.083 808.292 887.386 794.986 903.798 794.986C920.209 794.987 933.516 808.293 933.516 824.704C933.515 841.115 920.209 854.419 903.798 854.419C903.026 854.419 902.261 854.376 901.504 854.318C900.805 854.27 900.099 854.236 899.388 854.236C882.267 854.237 868.388 868.12 868.388 885.24C868.388 885.253 868.39 885.266 868.39 885.279C868.612 886.742 868.727 888.239 868.727 889.764V954.854C868.726 971.171 855.5 984.397 839.184 984.397ZM1164.54 921.328C1148.23 921.328 1135 908.101 1135 891.784V826.544C1135 810.227 1148.23 797 1164.54 797C1180.86 797 1194.09 810.227 1194.09 826.544V891.784C1194.09 908.101 1180.86 921.328 1164.54 921.328ZM1034.19 984.238C1017.78 984.237 1004.72 970.903 1004.72 954.492C1004.72 953.274 1004.56 952.104 1004.7 950.924C1004.71 950.676 1004.72 950.427 1004.72 950.179C1004.72 933.058 990.842 919.176 973.722 919.176C973.01 919.176 972.305 919.208 971.605 919.257C970.848 919.315 970.084 919.357 969.312 919.357C952.9 919.357 939.594 906.054 939.594 889.643C939.594 873.231 952.9 859.925 969.312 859.925C985.723 859.925 999.026 873.231 999.026 889.643C999.026 890.737 998.965 891.817 998.85 892.881C998.831 893.304 998.814 893.728 998.814 894.155C998.815 911.219 1012.6 925.059 1029.65 925.15C1031.13 924.923 1032.82 924.956 1034.37 924.956C1050.78 924.956 1063.91 938.112 1063.91 954.523C1063.91 970.935 1050.6 984.238 1034.19 984.238ZM903.954 919.435C887.543 919.434 874.238 906.13 874.238 889.719C874.238 873.307 887.543 860.003 903.954 860.003C920.366 860.003 933.671 873.307 933.671 889.719C933.671 906.13 920.366 919.435 903.954 919.435ZM903.944 1245C887.533 1245 874.228 1231.69 874.228 1215.28C874.228 1198.87 887.533 1185.57 903.944 1185.57C904.717 1185.57 905.482 1185.61 906.239 1185.67C906.938 1185.72 907.643 1185.75 908.354 1185.75C925.475 1185.75 939.354 1171.87 939.354 1154.75C939.354 1154.5 939.342 1154.25 939.336 1154C939.193 1152.82 939.354 1151.65 939.354 1150.43C939.355 1149.6 939.39 1148.78 939.455 1147.97V954.71C939.455 938.394 952.683 925.166 968.999 925.166C985.315 925.166 998.543 938.394 998.543 954.71V1150.21C998.543 1150.24 998.542 1150.27 998.542 1150.3C998.542 1150.34 998.543 1150.37 998.543 1150.4C998.543 1166.81 985.411 1179.97 968.999 1179.97C967.453 1179.97 965.761 1180 964.279 1179.77C947.237 1179.87 933.448 1193.71 933.447 1210.77C933.447 1211.2 933.464 1211.62 933.482 1212.04C933.598 1213.11 933.659 1214.19 933.659 1215.28C933.659 1231.69 920.356 1245 903.944 1245ZM709.491 1114.39C693.175 1114.39 679.947 1101.17 679.947 1084.85V1024.02C679.748 1022.63 679.643 1021.21 679.643 1019.76C679.643 1003.35 692.774 990.197 709.186 990.197C710.731 990.197 712.423 990.164 713.905 990.392C730.948 990.3 744.737 976.461 744.737 959.397C744.737 959.357 744.736 959.317 744.735 959.276C744.523 957.843 744.411 956.376 744.411 954.884C744.411 938.472 757.717 925.167 774.129 925.167C774.147 925.167 774.166 925.168 774.185 925.168C774.203 925.168 774.222 925.167 774.24 925.167C790.652 925.167 803.958 938.472 803.958 954.884C803.958 956.376 803.847 957.843 803.635 959.276C803.634 959.317 803.632 959.357 803.632 959.397C803.633 976.187 816.982 989.855 833.645 990.377C835.457 990.029 837.328 989.846 839.241 989.846H904.481C920.798 989.846 934.025 1003.07 934.025 1019.39C934.025 1035.71 920.798 1048.93 904.481 1048.93H844.702C842.86 1049.29 840.957 1049.48 839.01 1049.48C822.599 1049.48 809.54 1036.14 809.539 1019.73C809.539 1018.52 809.377 1017.35 809.52 1016.17C809.526 1015.92 809.539 1015.67 809.539 1015.42C809.538 998.299 795.66 984.417 778.539 984.417C778.086 984.417 777.635 984.432 777.188 984.454C776.218 984.55 775.235 984.599 774.24 984.599H774.129C773.135 984.599 772.152 984.549 771.183 984.454C770.734 984.432 770.283 984.417 769.83 984.417C752.709 984.417 738.831 998.299 738.83 1015.42C738.83 1015.67 738.843 1015.92 738.85 1016.17C738.895 1016.54 738.907 1016.91 738.906 1017.29C738.99 1018.19 739.034 1019.1 739.034 1020.03V1084.85C739.034 1101.17 725.808 1114.39 709.491 1114.39ZM1099.57 1049.48C1083.15 1049.48 1069.85 1036.18 1069.85 1019.76C1069.85 1003.35 1083.15 990.047 1099.57 990.047C1115.98 990.047 1129.28 1003.35 1129.28 1019.76C1129.28 1036.18 1115.98 1049.48 1099.57 1049.48ZM903.782 1177.52C887.466 1177.52 874.238 1164.3 874.238 1147.98V1083.09C874.238 1066.78 887.466 1053.55 903.782 1053.55C920.099 1053.55 933.326 1066.78 933.326 1083.09V1147.98C933.326 1164.3 920.099 1177.52 903.782 1177.52ZM1034.34 1114.39C1017.93 1114.39 1004.62 1101.09 1004.62 1084.68C1004.62 1068.26 1017.93 1054.96 1034.34 1054.96C1050.75 1054.96 1064.05 1068.26 1064.05 1084.68C1064.05 1101.09 1050.75 1114.39 1034.34 1114.39ZM709.665 1179.86C693.253 1179.86 679.949 1166.56 679.949 1150.15C679.949 1133.74 693.253 1120.43 709.665 1120.43C710.65 1120.43 711.624 1120.48 712.585 1120.58C713.079 1120.6 713.576 1120.61 714.076 1120.61C730.623 1120.61 744.141 1107.65 745.03 1091.32C744.625 1089.37 744.411 1087.34 744.411 1085.27C744.411 1068.85 757.715 1055.55 774.127 1055.55C774.21 1055.55 774.293 1055.55 774.376 1055.55C774.433 1055.55 774.49 1055.55 774.547 1055.55C790.958 1055.55 804.262 1068.86 804.263 1085.27C804.263 1087.47 804.02 1089.63 803.563 1091.7C804.621 1107.86 818.063 1120.64 834.493 1120.64C834.884 1120.64 835.273 1120.63 835.66 1120.62C836.759 1120.5 837.877 1120.43 839.009 1120.43C855.42 1120.43 868.725 1133.74 868.725 1150.15C868.724 1166.56 855.42 1179.86 839.009 1179.86C822.597 1179.86 809.293 1166.56 809.292 1150.15C809.292 1149.16 809.342 1148.18 809.437 1147.22C809.46 1146.73 809.472 1146.23 809.472 1145.74C809.471 1128.62 795.592 1114.74 778.471 1114.74C778.446 1114.74 778.421 1114.74 778.396 1114.74C777.136 1114.9 775.851 1114.98 774.547 1114.98C774.439 1114.98 774.331 1114.98 774.223 1114.98C774.191 1114.98 774.159 1114.98 774.127 1114.98C772.596 1114.98 771.092 1114.87 769.624 1114.64C752.755 1114.93 739.171 1128.69 739.17 1145.63C739.17 1146.03 739.179 1146.42 739.194 1146.81C739.317 1147.91 739.381 1149.02 739.381 1150.15C739.381 1166.56 726.077 1179.86 709.665 1179.86ZM1034.34 1245C1017.93 1245 1004.62 1231.7 1004.62 1215.28C1004.62 1198.87 1017.93 1185.57 1034.34 1185.57C1035.32 1185.57 1036.3 1185.62 1037.26 1185.71C1037.75 1185.73 1038.25 1185.75 1038.75 1185.75C1055.87 1185.75 1069.75 1171.87 1069.75 1154.75C1069.75 1154.56 1069.75 1154.38 1069.75 1154.2C1069.59 1152.96 1069.5 1151.69 1069.5 1150.4C1069.5 1133.99 1082.81 1120.69 1099.22 1120.69C1115.63 1120.69 1128.94 1133.99 1128.94 1150.4C1128.94 1166.81 1115.63 1180.12 1099.22 1180.12C1097.67 1180.12 1096.15 1180 1094.66 1179.77C1077.62 1179.87 1063.84 1193.71 1063.84 1210.77C1063.84 1211.16 1063.85 1211.56 1063.87 1211.95C1063.99 1213.04 1064.05 1214.16 1064.05 1215.28C1064.05 1231.7 1050.75 1245 1034.34 1245ZM1099.22 1245C1082.81 1245 1069.5 1231.69 1069.5 1215.28C1069.5 1198.87 1082.81 1185.57 1099.22 1185.57C1115.63 1185.57 1128.94 1198.87 1128.94 1215.28C1128.94 1231.69 1115.63 1245 1099.22 1245ZM643.968 1245C627.556 1245 614.251 1231.69 614.251 1215.28C614.251 1198.87 627.556 1185.57 643.968 1185.57C660.379 1185.57 673.683 1198.87 673.684 1215.28C673.684 1231.69 660.379 1245 643.968 1245Z" fill="#EEEDEC"/>
<path d="M180.5 1055.1C197.135 1055.1 210.373 1068.62 210.373 1085.25C210.373 1086.49 210.537 1087.68 210.393 1088.87C210.386 1089.12 210.373 1089.37 210.373 1089.63C210.374 1106.98 224.443 1121.05 241.798 1121.05C242.519 1121.05 243.234 1121.02 243.942 1120.97C244.71 1120.91 245.486 1120.87 246.269 1120.87C262.904 1120.87 276.392 1134.36 276.393 1150.99C276.393 1167.63 262.905 1181.12 246.269 1181.12C229.632 1181.12 216.147 1167.63 216.147 1150.99C216.148 1149.88 216.209 1148.79 216.326 1147.71C216.345 1147.28 216.361 1146.85 216.361 1146.42C216.361 1129.12 202.383 1115.09 185.107 1115C183.605 1115.23 181.89 1115.19 180.323 1115.19C163.687 1115.19 150.375 1101.86 150.375 1085.22C150.376 1068.59 163.864 1055.1 180.5 1055.1ZM511.871 1055.1C528.506 1055.1 541.745 1068.62 541.745 1085.25C541.745 1086.49 541.909 1087.68 541.765 1088.87C541.758 1089.12 541.745 1089.37 541.745 1089.63C541.746 1106.98 555.815 1121.05 573.17 1121.05C573.891 1121.05 574.606 1121.02 575.314 1120.97C576.082 1120.91 576.857 1120.87 577.64 1120.87C594.275 1120.87 607.764 1134.36 607.765 1150.99C607.765 1167.63 594.276 1181.12 577.64 1181.12C561.003 1181.12 547.519 1167.63 547.519 1150.99C547.519 1149.88 547.58 1148.79 547.697 1147.71C547.716 1147.28 547.733 1146.85 547.733 1146.42C547.733 1129.12 533.755 1115.09 516.479 1115C514.976 1115.23 513.261 1115.19 511.694 1115.19C495.058 1115.19 481.747 1101.86 481.747 1085.22C481.748 1068.59 495.235 1055.1 511.871 1055.1ZM49.998 995.274C66.5379 995.274 79.9463 1008.68 79.9463 1025.22V1091.36C79.9461 1107.9 66.5378 1121.3 49.998 1121.3C33.4583 1121.3 20.05 1107.9 20.0498 1091.36V1025.22C20.0498 1008.68 33.4582 995.275 49.998 995.274ZM379.215 991.11C395.851 991.11 409.339 1004.6 409.339 1021.23C409.339 1037.87 395.851 1051.36 379.215 1051.36C378.105 1051.36 377.01 1051.29 375.932 1051.18C375.503 1051.16 375.072 1051.14 374.64 1051.14C357.342 1051.14 343.314 1065.12 343.221 1082.4C343.406 1083.6 343.419 1084.95 343.418 1086.25C343.427 1086.56 343.435 1086.87 343.435 1087.18C343.435 1090.09 343.016 1092.91 342.24 1095.57C339.075 1106.56 329.836 1114.88 318.335 1116.73C316.757 1116.99 315.137 1117.13 313.486 1117.13H247.353C230.813 1117.13 217.405 1103.72 217.404 1087.18C217.404 1070.64 230.813 1057.23 247.353 1057.23H310.979C311.803 1057.17 312.636 1057.13 313.477 1057.13C314.711 1057.13 315.898 1056.96 317.094 1057.11C317.345 1057.12 317.597 1057.13 317.85 1057.13C335.205 1057.13 349.277 1043.06 349.277 1025.7C349.277 1024.98 349.244 1024.27 349.195 1023.56C349.137 1022.79 349.093 1022.02 349.093 1021.23C349.093 1004.6 362.579 991.111 379.215 991.11ZM512.231 664.958C528.868 664.958 542.355 678.446 542.355 695.082C542.355 711.718 528.867 725.204 512.231 725.204C511.449 725.204 510.674 725.161 509.906 725.103C509.198 725.054 508.483 725.02 507.762 725.02C490.406 725.02 476.338 739.092 476.337 756.447C476.337 756.7 476.35 756.952 476.356 757.203C476.501 758.399 476.337 759.585 476.337 760.82C476.337 761.661 476.301 762.493 476.234 763.316V1024.12C476.234 1040.66 462.826 1054.07 446.286 1054.07C441.983 1054.07 437.893 1053.16 434.194 1051.53C420.113 1054.64 409.58 1067.19 409.58 1082.21C409.58 1082.39 409.582 1082.57 409.585 1082.76C409.746 1084.02 409.83 1085.31 409.83 1086.61C409.83 1103.25 396.343 1116.73 379.707 1116.74C363.071 1116.74 349.584 1103.25 349.584 1086.61C349.584 1069.98 363.071 1056.49 379.707 1056.49C381.279 1056.49 382.824 1056.61 384.331 1056.84C401.6 1056.74 415.568 1042.71 415.568 1025.42C415.568 1025.02 415.559 1024.62 415.544 1024.23C415.42 1023.12 415.354 1021.99 415.354 1020.84C415.354 1018.2 415.697 1015.63 416.339 1013.18V761.05C416.339 761.017 416.34 760.983 416.34 760.95C416.34 760.917 416.339 760.884 416.339 760.852C416.339 744.215 429.65 730.879 446.286 730.879C447.853 730.879 449.568 730.846 451.07 731.076C468.346 730.983 482.325 716.955 482.325 699.657C482.325 699.224 482.307 698.794 482.289 698.365C482.172 697.287 482.11 696.191 482.11 695.082C482.111 678.446 495.595 664.958 512.231 664.958ZM643.286 924.919C659.826 924.919 673.234 938.327 673.234 954.867V1016.53C673.436 1017.94 673.543 1019.38 673.543 1020.84C673.543 1037.48 660.232 1050.81 643.596 1050.81C642.029 1050.81 640.314 1050.85 638.812 1050.62C621.536 1050.71 607.557 1064.74 607.557 1082.04C607.557 1082.08 607.558 1082.12 607.559 1082.16C607.774 1083.61 607.888 1085.1 607.888 1086.61C607.888 1103.25 594.4 1116.73 577.764 1116.74C577.745 1116.74 577.725 1116.73 577.706 1116.73C577.687 1116.73 577.668 1116.74 577.649 1116.74C561.013 1116.73 547.525 1103.25 547.525 1086.61C547.525 1085.1 547.638 1083.61 547.854 1082.16C547.854 1082.12 547.856 1082.08 547.856 1082.04C547.856 1064.74 533.878 1050.71 516.603 1050.62C515.1 1050.85 513.385 1050.81 511.818 1050.81C495.182 1050.81 481.87 1037.48 481.87 1020.84C481.871 1004.21 495.358 990.721 511.994 990.721C528.629 990.722 541.867 1004.24 541.868 1020.87C541.868 1022.11 542.032 1023.29 541.888 1024.49C541.881 1024.74 541.868 1024.99 541.868 1025.25C541.869 1042.6 555.938 1056.67 573.293 1056.67C573.755 1056.67 574.215 1056.66 574.673 1056.64C575.652 1056.54 576.645 1056.49 577.649 1056.49H577.764C578.768 1056.49 579.76 1056.54 580.739 1056.64C581.197 1056.66 581.657 1056.67 582.12 1056.67C599.475 1056.67 613.544 1042.6 613.545 1025.25C613.545 1024.99 613.532 1024.74 613.525 1024.49C613.479 1024.11 613.466 1023.73 613.468 1023.35C613.384 1022.43 613.338 1021.51 613.338 1020.57V954.867C613.338 938.327 626.746 924.919 643.286 924.919ZM52.0107 929C68.6469 929 82.1327 942.487 82.1328 959.123C82.1328 960.269 82.0671 961.401 81.9424 962.514C81.9276 962.907 81.9199 963.302 81.9199 963.699C81.9199 980.994 95.8898 995.023 113.161 995.122C114.667 994.89 116.21 994.77 117.78 994.77C134.417 994.77 147.903 1008.26 147.903 1024.89C147.903 1041.53 134.417 1055.01 117.78 1055.01C101.144 1055.01 87.6582 1041.53 87.6582 1024.89C87.6582 1023.59 87.7416 1022.3 87.9023 1021.04C87.9055 1020.86 87.9082 1020.67 87.9082 1020.49C87.9082 1003.13 73.8378 989.064 56.4824 989.063C55.9821 989.063 55.484 989.076 54.9893 989.1C54.0095 989.196 53.0157 989.246 52.0107 989.246C51.8052 989.246 51.6001 989.242 51.3955 989.238C51.1909 989.242 50.9859 989.246 50.7803 989.246C49.7753 989.246 48.7815 989.196 47.8018 989.1C47.3071 989.076 46.8089 989.063 46.3086 989.063C28.9532 989.064 14.8829 1003.13 14.8828 1020.49C14.8828 1020.67 14.8855 1020.86 14.8887 1021.04C15.0494 1022.3 15.1328 1023.59 15.1328 1024.89C15.1328 1041.53 1.64683 1055.01 -14.9893 1055.01C-31.6257 1055.01 -45.1123 1041.53 -45.1123 1024.89C-45.112 1008.26 -31.6255 994.77 -14.9893 994.77C-13.4185 994.77 -11.876 994.89 -10.3701 995.122C6.90119 995.023 20.8711 980.994 20.8711 963.699C20.8711 963.302 20.8634 962.907 20.8486 962.514C20.724 961.401 20.6582 960.269 20.6582 959.123C20.6583 942.487 34.1441 929 50.7803 929C50.9858 929 51.1909 929.003 51.3955 929.007C51.6001 929.003 51.8052 929 52.0107 929ZM247.307 858.827C249.022 858.827 250.703 858.973 252.34 859.25C263.661 861.152 272.761 869.321 275.981 880.114C276.809 882.856 277.255 885.764 277.255 888.775C277.255 889.081 277.248 889.385 277.239 889.688C277.241 890.991 277.228 892.345 277.041 893.56C277.134 910.836 291.163 924.813 308.461 924.813C308.894 924.813 309.324 924.796 309.753 924.777C310.831 924.66 311.926 924.599 313.035 924.599C329.672 924.599 343.159 938.084 343.159 954.721C343.159 958.112 342.598 961.371 341.564 964.413C338.524 973.53 331.252 980.651 322.037 983.476C319.194 984.365 316.171 984.845 313.035 984.845C312.43 984.845 311.829 984.824 311.232 984.789C310.257 984.777 309.279 984.738 308.379 984.6C291.103 984.693 277.126 998.721 277.125 1016.02C277.125 1016.45 277.142 1016.88 277.16 1017.31C277.277 1018.39 277.339 1019.48 277.339 1020.59C277.339 1037.23 263.854 1050.72 247.218 1050.72C230.582 1050.72 217.094 1037.23 217.094 1020.59C217.095 1003.96 230.582 990.472 247.218 990.472C248.001 990.472 248.776 990.515 249.544 990.573C250.253 990.622 250.968 990.656 251.688 990.656C269.044 990.656 283.113 976.584 283.113 959.229C283.113 958.976 283.1 958.724 283.094 958.473C283.052 958.123 283.037 957.774 283.036 957.425C282.957 956.534 282.914 955.632 282.914 954.721C282.914 953.938 282.957 953.162 283.016 952.395C283.065 951.686 283.098 950.971 283.098 950.25C283.098 932.895 269.026 918.826 251.671 918.825C251.419 918.825 251.166 918.838 250.915 918.845C249.719 918.989 248.533 918.825 247.298 918.825C246.457 918.825 245.624 918.79 244.8 918.724H181.173C164.633 918.724 151.225 905.315 151.225 888.775C151.225 872.236 164.633 858.827 181.173 858.827H247.307ZM181.101 795C197.477 795 210.754 808.186 210.755 824.452C210.755 840.719 197.651 853.759 181.274 853.759C179.732 853.759 178.043 853.791 176.564 853.565C160.705 853.65 147.672 865.585 145.984 880.91C146.679 883.409 147.053 886.041 147.053 888.76C147.053 905.026 133.774 918.215 117.397 918.215C117.224 918.215 117.05 918.211 116.877 918.208C116.704 918.211 116.531 918.215 116.357 918.215C99.9805 918.215 86.7021 905.026 86.7021 888.76C86.7023 886.041 87.0753 883.409 87.7695 880.91C86.0821 865.585 73.0495 853.65 57.1904 853.565C55.7116 853.791 54.0228 853.759 52.4805 853.759C52.1608 853.759 51.8425 853.751 51.5254 853.741C51.2087 853.751 50.8905 853.759 50.5713 853.759C49.0292 853.759 47.341 853.791 45.8623 853.565C28.8556 853.656 15.0953 867.374 15.0947 884.287C15.0947 884.566 15.1021 884.843 15.1123 885.12C15.6238 887.313 15.8955 889.599 15.8955 891.948V958.082C15.8955 964.677 13.7617 970.773 10.1494 975.721C4.75824 983.87 -4.48684 989.246 -14.9893 989.246C-31.6256 989.246 -45.1122 975.759 -45.1123 959.123C-45.1123 956.304 -44.7243 953.575 -44 950.987V891.948C-44 891.409 -43.9862 890.873 -43.958 890.341C-43.9859 889.817 -44 889.29 -44 888.76C-43.9993 872.494 -30.7222 859.308 -14.3457 859.308C-13.5753 859.308 -12.8123 859.35 -12.0566 859.407C-11.359 859.455 -10.655 859.488 -9.94531 859.488C7.13944 859.488 20.9886 845.728 20.9893 828.759C20.9893 828.512 20.9769 828.265 20.9707 828.02C20.8285 826.85 20.9893 825.69 20.9893 824.482C20.9899 808.217 34.0218 795.001 50.3975 795C50.775 795 51.1513 795.009 51.5254 795.022C51.8999 795.009 52.2763 795 52.6543 795C69.0301 795.001 82.0619 808.217 82.0625 824.482C82.0625 825.69 82.2232 826.85 82.0811 828.02C82.0748 828.265 82.0625 828.512 82.0625 828.759C82.0632 845.728 95.9124 859.488 112.997 859.488C113.025 859.488 113.054 859.487 113.082 859.487C114.158 859.37 115.25 859.308 116.357 859.308C116.531 859.308 116.704 859.31 116.877 859.314C117.05 859.31 117.224 859.308 117.397 859.308C118.504 859.308 119.597 859.37 120.672 859.487C120.7 859.487 120.729 859.488 120.758 859.488C137.843 859.488 151.692 845.728 151.692 828.759C151.692 828.512 151.68 828.265 151.674 828.02C151.532 826.85 151.692 825.69 151.692 824.482C151.693 808.217 164.725 795.001 181.101 795ZM643.109 858.551C659.746 858.551 673.232 872.038 673.232 888.674C673.232 905.31 659.746 918.797 643.109 918.797C642.104 918.797 641.111 918.747 640.131 918.65C639.636 918.627 639.139 918.614 638.639 918.614C621.865 918.614 608.161 931.756 607.261 948.305C607.671 950.287 607.889 952.34 607.889 954.444C607.889 971.081 594.402 984.567 577.766 984.567C577.666 984.567 577.567 984.564 577.468 984.563C577.425 984.564 577.382 984.565 577.339 984.565C560.703 984.565 547.216 971.078 547.216 954.442C547.216 952.204 547.462 950.023 547.925 947.924C546.852 931.54 533.227 918.583 516.572 918.583C516.174 918.583 515.777 918.593 515.382 918.607C514.271 918.732 513.141 918.797 511.996 918.797C495.36 918.797 481.873 905.311 481.873 888.675C481.873 872.039 495.36 858.551 511.996 858.551C528.632 858.551 542.119 872.038 542.119 888.674C542.119 889.679 542.069 890.673 541.973 891.652C541.949 892.147 541.937 892.645 541.937 893.146C541.937 910.501 556.007 924.571 573.362 924.571C573.385 924.571 573.407 924.57 573.43 924.57C574.709 924.404 576.014 924.319 577.339 924.319C577.452 924.319 577.566 924.32 577.679 924.321C577.708 924.321 577.737 924.321 577.766 924.321C579.317 924.321 580.841 924.439 582.329 924.665C599.429 924.37 613.201 910.421 613.201 893.25C613.201 892.852 613.192 892.456 613.177 892.062C613.052 890.95 612.986 889.819 612.986 888.674C612.986 872.038 626.473 858.551 643.109 858.551ZM248.011 923C264.647 923 278.134 936.487 278.134 953.123C278.134 969.759 264.647 983.246 248.011 983.246C231.374 983.246 217.888 969.759 217.888 953.123C217.888 936.487 231.374 923 248.011 923ZM378.937 796.801C395.361 796.801 408.675 810.116 408.675 826.54V901.311C408.675 917.735 395.361 931.049 378.937 931.049C362.512 931.049 349.198 917.735 349.198 901.311V826.54C349.198 810.116 362.512 796.801 378.937 796.801ZM577.649 661.605C594.286 661.606 607.771 675.093 607.771 691.729C607.771 692.839 607.71 693.934 607.593 695.013C607.574 695.441 607.557 695.872 607.557 696.305C607.557 713.602 621.536 727.631 638.812 727.724C640.314 727.493 642.029 727.526 643.596 727.526C660.232 727.527 673.543 740.863 673.543 757.499C673.543 757.532 673.541 757.565 673.541 757.598C673.541 757.63 673.543 757.663 673.543 757.696V823.248C673.543 823.321 673.541 823.395 673.54 823.468C673.541 823.542 673.543 823.615 673.543 823.689C673.543 840.326 660.232 853.662 643.596 853.662C642.029 853.662 640.314 853.695 638.812 853.465C621.536 853.558 607.557 867.586 607.557 884.884C607.557 885.317 607.574 885.747 607.593 886.176C607.71 887.254 607.771 888.35 607.771 889.459C607.771 906.095 594.286 919.583 577.649 919.583C577.625 919.583 577.6 919.582 577.575 919.582C577.551 919.582 577.526 919.583 577.502 919.583C560.866 919.583 547.38 906.095 547.38 889.459C547.38 888.35 547.442 887.254 547.559 886.176C547.577 885.747 547.595 885.317 547.595 884.884C547.594 867.586 533.617 853.558 516.341 853.465C514.839 853.696 513.123 853.662 511.557 853.662C494.92 853.662 481.608 840.326 481.608 823.689C481.608 823.615 481.61 823.542 481.61 823.468C481.61 823.395 481.608 823.321 481.608 823.248V757.696C481.608 757.663 481.609 757.63 481.609 757.598C481.609 757.565 481.608 757.532 481.608 757.499C481.608 740.863 494.92 727.526 511.557 727.526C513.123 727.526 514.839 727.493 516.341 727.724C533.617 727.631 547.594 713.602 547.595 696.305C547.595 695.872 547.577 695.441 547.559 695.013C547.442 693.934 547.38 692.839 547.38 691.729C547.38 675.093 560.866 661.606 577.502 661.605H577.649ZM51.1221 858C67.7585 858 81.2451 871.487 81.2451 888.123C81.245 904.759 67.7585 918.246 51.1221 918.246C34.4859 918.246 21.0001 904.759 21 888.123C21 871.487 34.4858 858 51.1221 858ZM582.12 721.667C581.407 721.667 580.7 721.699 579.999 721.747C579.804 721.763 579.609 721.776 579.413 721.788C579.402 721.789 579.39 721.79 579.379 721.791C579.228 721.8 579.076 721.808 578.925 721.815C578.502 721.837 578.077 721.852 577.649 721.852C577.625 721.852 577.6 721.85 577.575 721.85C577.551 721.85 577.526 721.852 577.502 721.852C577.074 721.852 576.649 721.837 576.226 721.815C576.074 721.808 575.923 721.8 575.771 721.791C575.76 721.79 575.749 721.789 575.737 721.788C575.542 721.776 575.347 721.763 575.152 721.747C574.451 721.699 573.744 721.667 573.031 721.667C555.676 721.667 541.607 735.74 541.606 753.095C541.606 753.347 541.62 753.6 541.626 753.851C541.77 755.047 541.606 756.233 541.606 757.468C541.606 758.308 541.571 759.141 541.505 759.964V821.224C541.571 822.047 541.606 822.88 541.606 823.721C541.606 824.956 541.77 826.142 541.626 827.338C541.62 827.589 541.606 827.841 541.606 828.094C541.607 845.449 555.676 859.521 573.031 859.521C573.744 859.521 574.451 859.489 575.152 859.44C575.347 859.424 575.542 859.412 575.737 859.399C575.749 859.399 575.76 859.397 575.771 859.396C575.923 859.387 576.074 859.379 576.226 859.372C576.649 859.351 577.074 859.337 577.502 859.337C577.526 859.337 577.551 859.338 577.575 859.338C577.6 859.338 577.625 859.337 577.649 859.337C578.077 859.337 578.502 859.351 578.925 859.372C579.076 859.379 579.228 859.387 579.379 859.396C579.39 859.397 579.402 859.399 579.413 859.399C579.609 859.412 579.804 859.424 579.999 859.44C580.7 859.489 581.407 859.521 582.12 859.521C599.475 859.521 613.544 845.449 613.545 828.094C613.545 827.841 613.532 827.589 613.525 827.338C613.381 826.142 613.545 824.956 613.545 823.721C613.545 822.88 613.58 822.047 613.646 821.224V759.964C613.58 759.141 613.545 758.308 613.545 757.468C613.545 756.233 613.381 755.047 613.525 753.851C613.532 753.6 613.545 753.347 613.545 753.095C613.544 735.74 599.475 721.667 582.12 721.667ZM-13.9189 795C2.62094 795 16.0293 808.408 16.0293 824.948C16.0292 841.488 2.6209 854.896 -13.9189 854.896H-80.0527C-96.5924 854.896 -110 841.488 -110 824.948C-110 808.408 -96.5925 795 -80.0527 795H-13.9189ZM181.93 603.429C198.498 603.429 211.93 616.86 211.93 633.429V756.647C211.967 757.262 211.988 757.881 211.988 758.505C211.988 759.288 211.945 760.063 211.887 760.831C211.838 761.54 211.805 762.255 211.805 762.976C211.805 780.331 225.876 794.4 243.231 794.4C243.484 794.4 243.737 794.387 243.987 794.381C245.183 794.236 246.37 794.4 247.604 794.4C248.445 794.4 249.279 794.436 250.103 794.502H313.969C330.508 794.502 343.917 807.91 343.917 824.45C343.917 840.99 330.509 854.398 313.969 854.398H247.835C247.802 854.398 247.768 854.397 247.735 854.396C247.702 854.397 247.669 854.398 247.636 854.398C231 854.398 217.664 841.086 217.664 824.45C217.664 822.884 217.631 821.168 217.861 819.666C217.768 802.39 203.74 788.413 186.442 788.412C186.009 788.412 185.578 788.43 185.149 788.448C184.071 788.565 182.976 788.627 181.867 788.627C165.231 788.627 151.743 775.141 151.743 758.505C151.743 757.372 151.808 756.254 151.93 755.153V633.429C151.93 616.86 165.361 603.429 181.93 603.429ZM312.124 665C328.759 665.001 341.997 678.517 341.998 695.152C341.998 696.387 342.161 697.574 342.017 698.77C342.01 699.02 341.998 699.273 341.998 699.525C341.999 716.88 356.067 730.953 373.422 730.953C374.143 730.953 374.858 730.92 375.566 730.871C376.334 730.812 377.11 730.769 377.893 730.769C394.528 730.769 408.016 744.255 408.017 760.891C408.017 777.527 394.529 791.014 377.893 791.015C361.256 791.015 347.772 777.527 347.771 760.891C347.772 759.781 347.833 758.686 347.95 757.607C347.969 757.179 347.985 756.748 347.985 756.315C347.985 739.018 334.007 724.989 316.731 724.896C315.229 725.127 313.514 725.094 311.947 725.094C295.311 725.094 282 711.758 282 695.121C282.001 678.485 295.488 665 312.124 665ZM113.122 730.166C129.758 730.166 143.245 743.653 143.245 760.289C143.245 776.925 129.758 790.412 113.122 790.412C96.4858 790.412 82.999 776.925 82.999 760.289C82.9992 743.653 96.4859 730.166 113.122 730.166ZM251.122 728C267.758 728 281.245 741.487 281.245 758.123C281.245 774.759 267.758 788.246 251.122 788.246C234.486 788.246 221 774.759 221 758.123C221 741.487 234.486 728 251.122 728ZM117.397 605C133.774 605 147.052 618.186 147.053 634.452C147.053 650.719 133.948 663.759 117.571 663.759C116.029 663.759 114.341 663.791 112.862 663.565C95.8556 663.656 82.0953 677.374 82.0947 694.287C82.0948 694.71 82.1118 695.131 82.1299 695.55C82.2449 696.604 82.3056 697.675 82.3057 698.76C82.3057 706.632 79.1961 713.783 74.1309 719.067C68.6375 725.683 60.3518 729.896 51.0811 729.896H-15.0527C-31.5924 729.896 -45.0009 716.488 -45.001 699.948C-45.001 683.408 -31.5925 670 -15.0527 670H46.2422C48.3071 669.548 50.4526 669.308 52.6543 669.308C53.4247 669.308 54.1877 669.35 54.9434 669.407C55.641 669.455 56.345 669.488 57.0547 669.488C74.1395 669.488 87.9886 655.728 87.9893 638.759C87.9893 638.512 87.9769 638.265 87.9707 638.02C87.8285 636.85 87.9893 635.69 87.9893 634.482C87.9899 618.217 101.022 605.001 117.397 605ZM446.122 666C462.758 666 476.245 679.487 476.245 696.123C476.245 712.759 462.758 726.246 446.122 726.246C429.486 726.246 415.999 712.759 415.999 696.123C415.999 679.487 429.486 666 446.122 666ZM184.124 402C200.759 402.001 213.997 415.517 213.998 432.152C213.998 433.387 214.161 434.574 214.017 435.77C214.01 436.02 213.998 436.273 213.998 436.525C213.999 453.88 228.067 467.953 245.422 467.953C246.143 467.953 246.858 467.92 247.566 467.871C248.334 467.812 249.11 467.769 249.893 467.769C265.485 467.769 278.312 479.617 279.859 494.801C280.03 496.11 280.12 497.445 280.12 498.802C280.12 500.037 280.284 501.223 280.14 502.419C280.133 502.67 280.12 502.923 280.12 503.175C280.121 520.53 294.19 534.602 311.545 534.603C312.266 534.603 312.981 534.57 313.689 534.521C314.457 534.462 315.233 534.418 316.016 534.418C332.651 534.418 346.139 547.904 346.14 564.54C346.14 581.176 332.652 594.664 316.016 594.664C299.379 594.664 285.894 581.176 285.894 564.54C285.894 563.431 285.955 562.335 286.072 561.257C286.091 560.828 286.108 560.398 286.108 559.965C286.108 542.667 272.13 528.639 254.854 528.546C253.352 528.777 251.637 528.743 250.07 528.743C237.056 528.743 226.076 520.582 221.912 509.063C220.531 505.608 219.772 501.838 219.771 497.891C219.772 496.781 219.833 495.686 219.95 494.607C219.969 494.179 219.985 493.748 219.985 493.315C219.985 476.018 206.007 461.989 188.731 461.896C187.229 462.127 185.514 462.094 183.947 462.094C183.801 462.094 183.654 462.09 183.508 462.088C183.362 462.09 183.216 462.094 183.069 462.094C181.503 462.094 179.787 462.127 178.285 461.896C161.009 461.989 147.031 476.018 147.03 493.315C147.03 493.748 147.048 494.179 147.066 494.607C147.183 495.686 147.245 496.781 147.245 497.891C147.245 500.572 146.893 503.17 146.235 505.645C143.159 518.933 131.338 528.743 117.069 528.743C115.503 528.743 113.787 528.777 112.285 528.546C95.0092 528.639 81.0309 542.667 81.0303 559.965C81.0303 560.398 81.048 560.828 81.0664 561.257C81.1833 562.335 81.2451 563.431 81.2451 564.54C81.2451 566.125 81.1217 567.682 80.8857 569.201C80.8918 569.449 80.8955 569.699 80.8955 569.948V636.082C80.8954 652.622 67.4871 666.03 50.9473 666.03C34.4076 666.03 21.0001 652.622 21 636.082V569.948C21 569.038 21.0416 568.138 21.1211 567.248C21.0416 566.356 21 565.453 21 564.54C21.0006 547.904 34.4882 534.418 51.124 534.418C51.9066 534.418 52.6817 534.462 53.4492 534.521C54.1579 534.57 54.8729 534.602 55.5938 534.603C72.9491 534.602 87.0179 520.53 87.0186 503.175C87.0185 502.923 87.0053 502.67 86.999 502.419C86.8574 501.246 87.0107 500.082 87.0166 498.872C87.0062 498.546 87 498.219 87 497.891C87.0006 481.255 100.488 467.769 117.124 467.769C117.907 467.769 118.682 467.812 119.449 467.871C120.158 467.92 120.873 467.953 121.594 467.953C138.949 467.953 153.018 453.881 153.019 436.525C153.019 436.273 153.005 436.02 152.999 435.77C152.855 434.574 153.019 433.387 153.019 432.152C153.019 415.517 166.257 402.001 182.893 402C183.098 402 183.303 402.003 183.508 402.007C183.713 402.003 183.918 402 184.124 402ZM578.37 534.867C595.006 534.867 608.495 548.352 608.495 564.988C608.495 581.625 595.183 594.96 578.547 594.96C576.98 594.96 575.265 594.994 573.763 594.764C556.487 594.857 542.509 608.885 542.509 626.183C542.509 626.615 542.526 627.046 542.544 627.475C542.661 628.553 542.723 629.648 542.723 630.757C542.723 647.393 529.238 660.882 512.602 660.882C495.965 660.882 482.478 647.393 482.478 630.757C482.478 614.121 495.966 600.636 512.602 600.636C513.384 600.636 514.16 600.679 514.928 600.737C515.636 600.786 516.351 600.82 517.072 600.82C534.427 600.82 548.495 586.748 548.496 569.393C548.496 569.14 548.484 568.888 548.478 568.637C548.333 567.441 548.496 566.255 548.496 565.02C548.497 548.384 561.735 534.868 578.37 534.867ZM445.597 468.164C461.799 468.164 474.934 481.299 474.934 497.501V554.628C475.48 556.901 475.771 559.276 475.771 561.72C475.771 570.381 472.179 578.138 466.411 583.552C461.097 588.903 453.734 592.217 445.597 592.217C443.227 592.217 440.923 591.934 438.716 591.403C423.281 593.055 411.254 606.286 411.253 622.368C411.253 622.797 411.27 623.225 411.288 623.649C411.402 624.718 411.463 625.803 411.463 626.902C411.463 643.39 398.278 656.758 382.012 656.758C381.523 656.758 381.037 656.745 380.555 656.721C379.229 656.903 377.875 657 376.499 657H254.477C252.349 657.495 250.133 657.758 247.856 657.758C231.59 657.758 218.404 644.39 218.404 627.902C218.404 626.803 218.465 625.718 218.579 624.649C218.597 624.225 218.614 623.797 218.614 623.368C218.614 607.077 206.272 593.712 190.549 592.345C188.27 592.913 185.887 593.217 183.433 593.217C167.23 593.217 154.096 580.082 154.096 563.88V498.501C154.096 482.299 167.23 469.164 183.433 469.164C199.635 469.164 212.77 482.299 212.77 498.501V563.292C212.801 564.323 212.899 565.326 212.778 566.336C212.772 566.585 212.76 566.835 212.76 567.085C212.76 584.285 226.516 598.232 243.485 598.232C244.19 598.232 244.889 598.199 245.582 598.15C246.333 598.092 247.091 598.05 247.856 598.05C248.713 598.05 249.561 598.088 250.399 598.161C251.418 598.055 252.453 598 253.5 598H374.611C376.976 597.38 379.456 597.05 382.012 597.05C382.777 597.05 383.535 597.092 384.285 597.15C384.978 597.199 385.677 597.232 386.382 597.232C402.303 597.232 415.395 584.956 416.952 569.233C416.5 567.188 416.26 565.062 416.26 562.88V497.501C416.26 481.299 429.394 468.164 445.597 468.164ZM52.9863 334C69.5261 334 82.9346 347.408 82.9346 363.948V492.294C83.0916 493.54 83.1728 494.809 83.1729 496.098C83.1726 512.734 69.6851 526.219 53.0488 526.219C51.9396 526.219 50.8447 526.157 49.7666 526.04C49.3379 526.022 48.9066 526.004 48.4736 526.004C31.1761 526.005 17.1476 539.983 17.0547 557.259C17.2853 558.761 17.2519 560.476 17.252 562.043C17.2518 578.679 3.91645 591.99 -12.7197 591.99C-12.7532 591.99 -12.7869 591.988 -12.8203 591.988C-12.8531 591.988 -12.8862 591.99 -12.9189 591.99H-79.0527C-95.5925 591.99 -109 578.582 -109 562.042C-109 545.502 -95.5923 532.095 -79.0527 532.095H-15.1865C-14.3628 532.028 -13.5295 531.992 -12.6885 531.992C-11.4536 531.992 -10.2672 531.828 -9.07129 531.973C-8.82046 531.979 -8.56773 531.992 -8.31543 531.992C9.03966 531.991 23.1113 517.923 23.1113 500.567C23.1113 499.846 23.0783 499.132 23.0293 498.423C22.9707 497.655 22.9277 496.88 22.9277 496.098C22.9277 495.231 22.9664 494.373 23.0381 493.525V363.948C23.0381 347.408 36.4464 334 52.9863 334ZM576.128 341.17C592.562 341.17 605.885 354.492 605.885 370.926V432.661C605.948 433.455 605.98 434.258 605.98 435.068C605.98 451.705 592.669 465.04 576.032 465.04C574.466 465.04 572.75 465.073 571.248 464.843C553.972 464.936 539.995 478.964 539.994 496.262C539.994 496.695 540.012 497.126 540.03 497.555C540.147 498.633 540.209 499.728 540.209 500.837C540.209 517.473 526.723 530.961 510.087 530.961C510.012 530.961 509.937 530.959 509.862 530.958C509.788 530.959 509.713 530.961 509.639 530.961C493.002 530.961 479.518 517.473 479.518 500.837C479.518 499.728 479.579 498.633 479.696 497.555C479.715 497.126 479.731 496.695 479.731 496.262C479.731 478.964 465.753 464.936 448.478 464.843C446.975 465.073 445.26 465.04 443.693 465.04C427.057 465.04 413.745 451.705 413.745 435.068C413.745 434.853 413.748 434.639 413.753 434.425C413.749 434.214 413.745 434.002 413.745 433.79V370.926C413.745 354.492 427.067 341.17 443.501 341.17C459.935 341.17 473.257 354.492 473.257 370.926V429.636C473.576 431.408 473.743 433.234 473.743 435.099C473.743 436.333 473.907 437.52 473.763 438.716C473.756 438.967 473.743 439.22 473.743 439.473C473.744 456.828 487.813 470.899 505.168 470.899C505.889 470.899 506.604 470.866 507.312 470.817C508.08 470.759 508.856 470.716 509.639 470.716C509.713 470.716 509.788 470.717 509.862 470.718C509.937 470.717 510.012 470.716 510.087 470.716C510.87 470.716 511.645 470.759 512.413 470.817C513.122 470.866 513.837 470.899 514.558 470.899C531.913 470.899 545.982 456.828 545.982 439.473C545.982 439.22 545.969 438.967 545.963 438.716C545.819 437.52 545.982 436.333 545.982 435.099C545.982 433.434 546.117 431.801 546.372 430.21V370.926C546.372 354.492 559.694 341.17 576.128 341.17ZM446.781 141C463.417 141 476.905 154.485 476.905 171.121C476.905 187.758 463.593 201.094 446.957 201.094C445.39 201.094 443.675 201.127 442.173 200.896C424.897 200.99 410.92 215.018 410.919 232.315C410.919 232.665 410.931 233.014 410.945 233.361C411.11 234.636 411.195 235.935 411.195 237.254C411.195 253.89 397.883 267.226 381.247 267.226C379.68 267.225 377.965 267.26 376.463 267.029C359.187 267.122 345.21 281.151 345.209 298.448C345.209 298.881 345.227 299.312 345.245 299.74C345.362 300.818 345.424 301.913 345.424 303.022C345.424 306.39 344.871 309.628 343.852 312.651V501.339C343.852 517.541 330.717 530.676 314.515 530.676C298.312 530.676 285.178 517.541 285.178 501.339V303.525C285.178 303.442 285.18 303.359 285.181 303.276C285.18 303.192 285.178 303.107 285.178 303.022C285.179 286.387 298.666 272.902 315.302 272.901C316.085 272.901 316.86 272.944 317.628 273.003C318.337 273.052 319.051 273.086 319.772 273.086C337.128 273.086 351.197 259.013 351.197 241.658C351.197 241.475 351.189 241.291 351.183 241.108C350.989 239.73 350.888 238.322 350.888 236.891C350.888 220.255 364.376 206.769 381.012 206.769C381.795 206.769 382.57 206.812 383.338 206.871C384.047 206.92 384.761 206.953 385.482 206.953C402.838 206.953 416.907 192.881 416.907 175.525C416.907 175.273 416.894 175.02 416.888 174.77C416.743 173.574 416.907 172.387 416.907 171.152C416.908 154.517 430.146 141.001 446.781 141ZM381.056 405.785C397.258 405.785 410.393 418.92 410.393 435.122V500.501C410.393 516.703 397.258 529.838 381.056 529.838C364.853 529.838 351.719 516.703 351.719 500.501V435.122C351.719 418.92 364.853 405.785 381.056 405.785ZM706.614 275.864C707.905 275.864 709.178 275.946 710.426 276.104H838.765C855.304 276.104 868.713 289.512 868.713 306.052C868.713 322.591 855.304 335.999 838.765 335.999H709.193C708.343 336.071 707.483 336.11 706.614 336.11C705.832 336.11 705.057 336.067 704.289 336.009C703.58 335.96 702.865 335.926 702.145 335.926C684.789 335.926 670.72 349.998 670.72 367.354C670.72 367.606 670.733 367.858 670.739 368.109C670.884 369.305 670.72 370.492 670.72 371.727C670.72 372.567 670.684 373.399 670.617 374.223V438.09C670.617 454.63 657.21 468.038 640.67 468.038C624.13 468.038 610.722 454.63 610.722 438.09V371.956C610.722 371.923 610.723 371.89 610.723 371.856C610.723 371.824 610.722 371.791 610.722 371.758C610.722 355.121 624.033 341.785 640.669 341.785C642.236 341.785 643.951 341.752 645.453 341.982C662.729 341.89 676.707 327.861 676.708 310.563C676.708 310.131 676.69 309.7 676.672 309.271C676.555 308.193 676.493 307.098 676.493 305.988C676.493 289.352 689.978 275.864 706.614 275.864ZM575.856 274.188C592.492 274.189 605.98 287.674 605.98 304.31C605.98 320.946 592.669 334.281 576.032 334.281C574.466 334.281 572.75 334.315 571.248 334.084C553.972 334.177 539.995 348.206 539.994 365.504C539.994 365.937 540.012 366.367 540.03 366.796C540.147 367.874 540.209 368.969 540.209 370.078C540.209 386.715 526.723 400.203 510.087 400.203C510.012 400.203 509.937 400.2 509.862 400.199C509.788 400.2 509.713 400.203 509.639 400.203C493.002 400.203 479.518 386.715 479.518 370.078C479.518 368.969 479.579 367.874 479.696 366.796C479.715 366.367 479.731 365.937 479.731 365.504C479.731 348.206 465.754 334.177 448.478 334.084C447.093 334.297 445.528 334.284 444.064 334.281C442.601 334.284 441.036 334.297 439.651 334.084C422.375 334.177 408.398 348.206 408.397 365.504C408.397 365.937 408.414 366.367 408.433 366.796C408.549 367.874 408.611 368.969 408.611 370.078C408.611 386.715 395.127 400.203 378.49 400.203C361.854 400.203 348.366 386.714 348.366 370.078C348.367 353.443 361.854 339.957 378.49 339.957C379.273 339.957 380.049 340 380.816 340.059C381.525 340.108 382.24 340.142 382.961 340.142C399.769 340.141 413.495 326.941 414.344 310.344C413.951 308.396 413.745 306.378 413.745 304.31C413.746 287.674 427.234 274.188 443.87 274.188C443.935 274.188 444 274.19 444.064 274.19C444.129 274.19 444.194 274.188 444.259 274.188C460.895 274.188 474.383 287.674 474.384 304.31C474.384 306.379 474.177 308.396 473.784 310.344C474.633 326.941 488.359 340.141 505.168 340.142C505.889 340.142 506.604 340.108 507.312 340.059C508.08 340 508.856 339.957 509.639 339.957C509.713 339.957 509.788 339.958 509.862 339.959C509.937 339.958 510.012 339.957 510.087 339.957C510.87 339.957 511.645 340 512.413 340.059C513.122 340.108 513.837 340.142 514.558 340.142C531.913 340.141 545.982 326.069 545.982 308.714C545.982 308.462 545.969 308.209 545.963 307.958C545.818 306.762 545.982 305.576 545.982 304.341C545.983 287.705 559.221 274.189 575.856 274.188ZM117.011 336C133.647 336 147.134 349.487 147.134 366.123C147.134 382.759 133.647 396.246 117.011 396.246C100.374 396.246 86.8878 382.759 86.8877 366.123C86.8877 349.487 100.374 336 117.011 336ZM253.781 203C270.417 203 283.905 216.485 283.905 233.121C283.905 249.758 270.593 263.094 253.957 263.094C252.39 263.094 250.675 263.127 249.173 262.896C231.897 262.99 217.92 277.018 217.919 294.315C217.919 294.748 217.937 295.179 217.955 295.607C218.072 296.686 218.134 297.781 218.134 298.891C218.134 315.527 204.648 329.015 188.012 329.015C187.119 329.015 186.235 328.973 185.361 328.896C184.546 328.963 183.721 329 182.888 329H56.4629C55.6736 329.061 54.8754 329.094 54.0693 329.094C52.5027 329.094 50.7873 329.127 49.2852 328.896C32.0092 328.989 18.0309 343.018 18.0303 360.315C18.0303 360.748 18.048 361.179 18.0664 361.607C18.1833 362.686 18.2451 363.781 18.2451 364.891C18.245 381.527 4.76021 395.014 -11.876 395.015C-28.5122 395.014 -41.9999 381.527 -42 364.891C-41.9994 348.255 -28.5118 334.769 -11.876 334.769C-11.0934 334.769 -10.3183 334.812 -9.55078 334.871C-8.84213 334.92 -8.12713 334.953 -7.40625 334.953C8.11897 334.953 21.0122 323.692 23.5596 308.894C22.4777 305.796 21.8877 302.467 21.8877 299C21.8877 282.431 35.3192 269 51.8877 269H182.888C183.284 269 183.679 269.009 184.071 269.024C185.361 268.856 186.676 268.769 188.012 268.769C188.795 268.769 189.57 268.812 190.338 268.871C191.047 268.92 191.761 268.953 192.482 268.953C209.838 268.953 223.907 254.881 223.907 237.525C223.907 237.273 223.894 237.02 223.888 236.77C223.743 235.574 223.907 234.387 223.907 233.152C223.908 216.517 237.146 203.001 253.781 203ZM250.928 270.056C267.13 270.056 280.265 283.19 280.265 299.393V364.771C280.265 380.974 267.13 394.108 250.928 394.108C234.725 394.108 221.591 380.974 221.591 364.771V299.393C221.591 283.19 234.725 270.056 250.928 270.056ZM509.248 275.864C525.884 275.864 539.37 289.351 539.37 305.987C539.37 322.624 525.884 336.11 509.248 336.11C492.612 336.11 479.125 322.624 479.125 305.987C479.125 289.351 492.612 275.864 509.248 275.864ZM640.845 275.864C657.481 275.865 670.967 289.351 670.967 305.987C670.967 322.624 657.481 336.11 640.845 336.11C624.208 336.11 610.722 322.624 610.722 305.987C610.722 289.351 624.208 275.864 640.845 275.864ZM1033.12 212.161C1049.76 212.161 1063.24 225.648 1063.24 242.284C1063.24 258.92 1049.76 272.407 1033.12 272.407C1016.48 272.407 1003 258.921 1003 242.284C1003 225.648 1016.48 212.161 1033.12 212.161ZM711.011 211C727.647 211 741.134 224.487 741.134 241.123C741.134 257.759 727.647 271.246 711.011 271.246C694.374 271.246 680.888 257.759 680.888 241.123C680.888 224.487 694.374 211 711.011 211ZM446.011 209C462.647 209 476.134 222.487 476.134 239.123C476.134 255.759 462.647 269.246 446.011 269.246C429.374 269.246 415.888 255.759 415.888 239.123C415.888 222.487 429.374 209 446.011 209ZM643.271 78C659.704 78 673.026 91.3221 673.026 107.756V169.481C673.09 170.279 673.123 171.085 673.123 171.898C673.123 188.535 659.811 201.87 643.175 201.87C641.608 201.87 639.893 201.904 638.391 201.673C621.115 201.766 607.138 215.794 607.137 233.092C607.137 233.525 607.154 233.956 607.172 234.385C607.289 235.463 607.351 236.558 607.351 237.667C607.351 249.536 600.486 259.8 590.512 264.709C586.394 266.822 581.727 268.015 576.781 268.015C560.145 268.015 546.659 254.527 546.659 237.891C546.659 236.781 546.721 235.686 546.838 234.607C546.856 234.179 546.874 233.748 546.874 233.315C546.873 216.018 532.896 201.99 515.62 201.896C514.118 202.127 512.403 202.094 510.836 202.094C494.2 202.094 480.888 188.758 480.888 172.121C480.888 171.869 480.89 171.617 480.896 171.366C480.89 171.119 480.888 170.87 480.888 170.621V107.756C480.888 91.3222 494.21 78 510.644 78C527.077 78 540.399 91.3221 540.399 107.756V166.689C540.718 168.462 540.886 170.287 540.886 172.152C540.886 173.387 541.05 174.574 540.905 175.77C540.899 176.02 540.886 176.273 540.886 176.525C540.886 193.87 554.939 207.936 572.28 207.952C573.891 207.686 575.544 207.546 577.229 207.546C578.012 207.546 578.788 207.589 579.556 207.647C580.264 207.696 580.979 207.729 581.7 207.729C599.055 207.729 613.123 193.658 613.124 176.303C613.124 176.05 613.112 175.798 613.105 175.547C612.961 174.351 613.124 173.165 613.124 171.93C613.124 170.265 613.259 168.632 613.515 167.041V107.756C613.515 91.3222 626.837 78.0001 643.271 78ZM114.011 204C130.647 204 144.134 217.487 144.134 234.123C144.134 250.759 130.647 264.246 114.011 264.246C97.3744 264.246 83.8878 250.759 83.8877 234.123C83.8877 217.487 97.3743 204 114.011 204ZM45.4463 67.0049C45.472 67.0048 45.4977 67.0039 45.5234 67.0039C63.1562 67.0039 77.4502 81.2979 77.4502 98.9307C77.4502 101.299 77.1896 103.607 76.7002 105.829C77.8323 123.199 92.2754 136.938 109.932 136.938C110.351 136.937 110.769 136.928 111.185 136.912C112.365 136.78 113.565 136.71 114.78 136.71C115.141 136.71 115.5 136.718 115.858 136.729C116.202 136.719 116.547 136.712 116.893 136.712C117.944 136.712 118.983 136.765 120.008 136.864C120.546 136.89 121.087 136.904 121.632 136.904C140.027 136.904 154.939 121.992 154.939 103.597C154.939 103.403 154.938 103.209 154.935 103.017C154.764 101.679 154.675 100.315 154.675 98.9307C154.675 81.2981 168.969 67.0042 186.602 67.0039C204.234 67.0039 218.528 81.2979 218.528 98.9307C218.528 101.044 218.321 103.11 217.929 105.108C217.923 105.305 217.919 105.502 217.919 105.699C217.92 122.997 231.897 137.025 249.173 137.118C250.675 136.887 252.39 136.921 253.957 136.921C270.593 136.921 283.905 150.257 283.905 166.894C283.905 167.098 283.902 167.303 283.897 167.507C283.902 167.711 283.905 167.916 283.905 168.121C283.905 184.758 270.593 198.094 253.957 198.094C252.39 198.094 250.675 198.127 249.173 197.896C231.897 197.99 217.92 212.018 217.919 229.315C217.919 229.748 217.937 230.179 217.955 230.607C218.072 231.686 218.134 232.781 218.134 233.891C218.134 250.527 204.648 264.015 188.012 264.015C171.376 264.014 157.888 250.527 157.888 233.891C157.888 217.255 171.376 203.769 188.012 203.769C188.795 203.769 189.57 203.812 190.338 203.871C191.047 203.92 191.761 203.953 192.482 203.953C209.838 203.953 223.907 189.881 223.907 172.525C223.907 172.273 223.894 172.02 223.888 171.77C223.743 170.574 223.907 169.387 223.907 168.152C223.907 167.937 223.911 167.721 223.915 167.507C223.911 167.293 223.907 167.078 223.907 166.862C223.907 165.627 223.743 164.441 223.888 163.245C223.894 162.994 223.907 162.742 223.907 162.489C223.907 145.134 209.838 131.062 192.482 131.062C191.761 131.062 191.047 131.095 190.338 131.144C189.57 131.202 188.795 131.246 188.012 131.246C185.699 131.246 183.447 130.984 181.284 130.49C163.173 130.819 148.592 145.599 148.592 163.788C148.592 164.206 148.602 164.623 148.617 165.037C148.75 166.219 148.819 167.421 148.819 168.639C148.819 186.271 134.525 200.565 116.893 200.565C116.535 200.565 116.178 200.557 115.823 200.545C115.477 200.556 115.129 200.564 114.78 200.564C97.1479 200.564 82.8538 186.27 82.8535 168.638C82.8535 167.58 82.9073 166.534 83.0078 165.503C83.0332 164.971 83.0478 164.436 83.0479 163.898C83.0476 145.504 68.1349 130.591 49.7402 130.591C49.7113 130.591 49.6823 130.591 49.6533 130.591C48.3013 130.765 46.923 130.857 45.5234 130.857C45.3983 130.857 45.2733 130.855 45.1484 130.854C45.1227 130.854 45.097 130.854 45.0713 130.854C43.4283 130.854 41.8144 130.73 40.2383 130.49C22.1123 130.802 7.5138 145.588 7.51367 163.788C7.51368 164.206 7.5235 164.621 7.53906 165.035C7.67194 166.218 7.74121 167.42 7.74121 168.639C7.74104 186.271 -6.55296 200.565 -24.1855 200.565C-41.818 200.565 -56.1121 186.271 -56.1123 168.639C-56.1123 151.006 -41.8181 136.712 -24.1855 136.712C-23.1346 136.712 -22.0952 136.765 -21.0703 136.864C-20.5322 136.89 -19.9907 136.904 -19.4463 136.904C-1.67014 136.904 12.8525 122.978 13.8096 105.44C13.3737 103.338 13.1446 101.16 13.1445 98.9277C13.1445 81.2952 27.4388 67.0004 45.0713 67C45.1965 67 45.3215 67.0034 45.4463 67.0049ZM774.49 77C786.956 77 797.653 84.5715 802.233 95.3662C804.622 99.6726 805.981 104.641 805.981 109.948C805.981 111.515 806.015 113.23 805.784 114.732C805.877 132.008 819.906 145.986 837.203 145.986C837.636 145.986 838.067 145.969 838.495 145.95C839.573 145.833 840.669 145.772 841.778 145.771C858.222 145.772 871.587 158.946 871.895 175.316C872.052 176.563 872.134 177.834 872.134 179.123C872.134 195.759 858.647 209.246 842.011 209.246C825.565 209.246 812.199 196.067 811.895 179.693C811.738 178.449 811.656 177.181 811.656 175.894C811.656 175.111 811.7 174.335 811.759 173.567C811.808 172.859 811.841 172.144 811.841 171.423C811.841 154.068 797.768 139.999 780.413 139.998C780.161 139.998 779.908 140.011 779.657 140.018C778.461 140.162 777.275 139.998 776.04 139.998C771.727 139.998 767.625 139.106 763.912 137.498C749.498 140.354 738.63 153.063 738.629 168.315C738.629 168.748 738.646 169.179 738.664 169.607C738.781 170.686 738.843 171.781 738.843 172.891C738.843 189.527 725.358 203.015 708.722 203.015C692.086 203.014 678.598 189.527 678.598 172.891C678.598 156.255 692.086 142.769 708.722 142.769C709.504 142.769 710.28 142.812 711.048 142.871C711.756 142.92 712.472 142.953 713.192 142.953C730.547 142.953 744.616 128.88 744.616 111.525C744.616 111.273 744.604 111.02 744.598 110.77C744.453 109.574 744.616 108.387 744.616 107.152C744.617 90.5172 757.855 77.0011 774.49 77ZM576.011 143C592.647 143 606.134 156.487 606.134 173.123C606.134 189.759 592.647 203.246 576.011 203.246C559.374 203.246 545.888 189.759 545.888 173.123C545.888 156.487 559.374 143 576.011 143ZM446.304 9.36914C462.843 9.36914 476.252 22.7767 476.252 39.3164V100.978C476.454 102.387 476.56 103.827 476.561 105.292C476.561 121.928 463.249 135.263 446.613 135.264C445.047 135.264 443.331 135.298 441.829 135.067C424.553 135.16 410.575 149.189 410.574 166.486C410.574 166.526 410.576 166.566 410.576 166.605C410.792 168.059 410.905 169.547 410.905 171.061C410.905 187.697 397.417 201.185 380.781 201.186C380.762 201.186 380.743 201.185 380.724 201.185C380.705 201.185 380.686 201.186 380.667 201.186C364.031 201.185 350.543 187.697 350.543 171.061C350.543 169.547 350.655 168.059 350.871 166.605C350.871 166.566 350.874 166.526 350.874 166.486C350.873 149.189 336.896 135.16 319.62 135.067C318.118 135.298 316.403 135.264 314.836 135.264C298.2 135.264 284.888 121.928 284.888 105.292C284.888 88.6561 298.376 75.171 315.012 75.1709C331.647 75.1719 344.885 88.6879 344.886 105.323C344.886 106.558 345.05 107.744 344.905 108.94C344.899 109.191 344.886 109.444 344.886 109.696C344.886 127.051 358.955 141.124 376.311 141.124C376.768 141.124 377.224 141.108 377.677 141.086C378.66 140.989 379.658 140.939 380.667 140.939H380.781C381.79 140.939 382.787 140.989 383.771 141.086C384.224 141.108 384.679 141.124 385.138 141.124C402.493 141.124 416.562 127.051 416.562 109.696C416.562 109.444 416.549 109.191 416.543 108.94C416.497 108.56 416.484 108.18 416.485 107.799C416.401 106.885 416.355 105.959 416.355 105.022V39.3164C416.356 22.7768 429.764 9.3692 446.304 9.36914ZM46.0107 135C62.6471 135 76.1338 148.487 76.1338 165.123C76.1337 181.759 62.6471 195.246 46.0107 195.246C29.3744 195.246 15.8878 181.759 15.8877 165.123C15.8877 148.487 29.3743 135 46.0107 135ZM512.012 13C528.648 13 542.134 26.4877 542.134 43.124C542.134 44.2334 542.072 45.329 541.955 46.4072C541.937 46.8358 541.919 47.2664 541.919 47.6992C541.92 64.9968 555.897 79.0251 573.173 79.1182C574.675 78.8875 576.39 78.921 577.957 78.9209C594.593 78.9209 607.905 92.2571 607.905 108.894C607.905 125.529 594.417 139.014 577.781 139.015C561.146 139.014 547.908 125.498 547.907 108.862C547.907 107.627 547.743 106.441 547.888 105.245C547.894 104.994 547.907 104.742 547.907 104.489C547.907 87.1341 533.838 73.0617 516.482 73.0615C515.761 73.0616 515.047 73.0945 514.338 73.1436C513.57 73.2022 512.795 73.2461 512.012 73.2461C495.376 73.2457 481.888 59.7597 481.888 43.124C481.888 26.4879 495.376 13.0004 512.012 13ZM774.781 13C791.417 13.0002 804.905 26.4854 804.905 43.1211C804.905 59.7575 791.593 73.0938 774.957 73.0938C773.39 73.0937 771.675 73.1272 770.173 72.8965C752.897 72.9895 738.92 87.0179 738.919 104.315C738.919 104.748 738.937 105.179 738.955 105.607C739.072 106.686 739.134 107.781 739.134 108.891C739.134 125.527 725.648 139.015 709.012 139.015C692.376 139.014 678.888 125.527 678.888 108.891C678.888 92.2549 692.376 78.7689 709.012 78.7686C709.795 78.7686 710.57 78.8125 711.338 78.8711C712.047 78.9201 712.761 78.9531 713.482 78.9531C730.838 78.953 744.907 64.8805 744.907 47.5254C744.907 47.2731 744.894 47.0203 744.888 46.7695C744.743 45.5735 744.907 44.3873 744.907 43.1523C744.908 26.5171 758.146 13.001 774.781 13ZM251.836 -29.0293C268.404 -29.0292 281.836 -15.5978 281.836 0.970703V99.9707C281.836 116.539 268.404 129.971 251.836 129.971C235.267 129.971 221.836 116.539 221.836 99.9707V0.970703C221.836 -15.5978 235.267 -29.0293 251.836 -29.0293ZM1023.01 9C1039.65 9.00006 1053.13 22.4867 1053.13 39.123C1053.13 55.7594 1039.65 69.246 1023.01 69.2461C1006.37 69.2461 992.888 55.7594 992.888 39.123C992.888 22.4866 1006.37 9 1023.01 9ZM446.127 -57C462.763 -57 476.25 -43.5133 476.25 -26.877C476.25 -10.2406 462.763 3.24605 446.127 3.24609C445.122 3.24609 444.128 3.1958 443.148 3.09961C442.654 3.07633 442.156 3.06348 441.656 3.06348C424.301 3.06356 410.231 17.1336 410.23 34.4893C410.23 34.6745 410.232 34.8594 410.235 35.0439C410.396 36.3039 410.479 37.588 410.479 38.8916C410.479 55.528 396.993 69.0146 380.356 69.0146C363.72 69.0146 350.233 55.528 350.233 38.8916C350.234 22.2555 363.72 8.76862 380.356 8.76855C381.929 8.76855 383.474 8.88975 384.981 9.12207C402.251 9.02077 416.219 -5.00781 416.219 -22.3008C416.219 -22.6987 416.209 -23.0949 416.194 -23.4893C416.07 -24.6013 416.004 -25.7317 416.004 -26.877C416.004 -43.5132 429.491 -56.9999 446.127 -57ZM123.888 2C140.456 2 153.888 15.4315 153.888 32C153.888 48.5685 140.456 62 123.888 62H24.8877C8.31915 62 -5.1123 48.5685 -5.1123 32C-5.1123 15.4315 8.31915 2 24.8877 2H123.888Z" fill="#EEEDEC"/>
</g>
<defs>
<clipPath id="clip0_152_444">

</clipPath>
<clipPath id="clip1_152_444">
<rect width="57" height="57" fill="white" transform="translate(550 769)"/>
</clipPath>
</defs>
</svg>
