<svg width="608" height="105" viewBox="296 262 608 105" fill="none" xmlns="http://www.w3.org/2000/svg">
<path d="M503.9 345.11H443.417C438.109 345.11 433.768 340.706 433.768 335.317V325.524H483.747C489.55 325.524 494.251 320.739 494.251 314.859C494.251 308.978 489.527 304.193 483.747 304.193H433.768V294.4C433.768 289.011 438.086 284.607 443.395 284.607H503.877C509.681 284.607 514.382 279.822 514.382 273.941C514.382 268.061 509.658 263.276 503.877 263.276H443.395C439.773 263.276 436.579 265.154 434.667 267.994C433.543 269.693 432.868 271.75 432.868 273.964C432.868 279.352 428.549 283.757 423.219 283.757C417.416 283.757 412.715 288.542 412.715 294.422V335.34C412.715 337.173 413.187 338.917 413.997 340.437C415.774 343.769 419.26 346.027 423.241 346.027C428.549 346.027 432.891 350.41 432.891 355.82C432.891 361.701 437.614 366.508 443.395 366.508H503.877C509.681 366.508 514.382 361.723 514.382 355.843C514.382 349.962 509.658 345.178 503.877 345.178L503.9 345.11ZM772.53 344.775H712.047C706.739 344.775 702.398 340.37 702.398 334.982V325.188H752.377C758.18 325.188 762.881 320.404 762.881 314.523C762.881 308.643 758.157 303.858 752.377 303.858H702.398V294.065C702.398 288.676 706.717 284.271 712.025 284.271H772.508C778.311 284.271 783.012 279.486 783.012 273.606C783.012 267.726 778.288 262.941 772.508 262.941H712.025C706.222 262.941 701.521 267.726 701.521 273.606C701.521 278.995 697.202 283.399 691.871 283.399C686.068 283.399 681.367 288.184 681.367 294.065V335.004C681.367 336.48 681.66 337.888 682.2 339.163C683.797 342.986 687.53 345.692 691.894 345.692C697.202 345.692 701.543 350.074 701.543 355.485C701.543 361.366 706.267 366.173 712.047 366.173H772.53C778.333 366.173 783.034 361.388 783.034 355.507C783.034 349.627 778.311 344.842 772.53 344.842V344.775ZM904 334.892V294.042C904 292.567 903.708 291.158 903.168 289.883C901.571 286.06 897.837 283.355 893.473 283.355C888.165 283.355 883.824 278.972 883.824 273.561C883.824 267.681 879.101 262.874 873.32 262.874H812.837C807.034 262.874 802.333 267.659 802.333 273.539V355.396C802.333 361.276 807.057 366.061 812.837 366.061H873.32C879.123 366.061 883.824 361.276 883.824 355.396C883.824 350.007 888.143 345.602 893.473 345.602C899.277 345.602 903.978 340.817 903.978 334.937V334.848L904 334.892ZM873.342 344.775H823.386V284.249H873.342C878.651 284.249 882.992 288.654 882.992 294.042V334.982C882.992 340.37 878.673 344.775 873.365 344.775H873.342ZM665.96 262.203H647.651C646.299 261.932 644.909 261.932 643.557 262.203H607.366C606.692 262.069 605.994 262.002 605.275 262.002C604.555 262.002 603.858 262.069 603.183 262.203H597.245C595.893 261.932 594.503 261.932 593.151 262.203H556.96C556.285 262.069 555.588 262.002 554.868 262.002C554.149 262.002 553.451 262.069 552.777 262.203H534.49C528.327 262.203 523.311 267.301 523.311 273.561C523.311 279.822 528.327 284.92 534.49 284.92H552.799C553.474 285.054 554.149 285.121 554.846 285.121C559.682 285.121 563.618 289.123 563.618 294.042C563.618 298.447 566.047 302.27 569.624 304.216H569.646C565.926 306.21 563.609 310.076 563.618 314.277V355.642C563.618 361.902 568.634 367 574.797 367H575.202C581.365 367 586.381 361.902 586.381 355.642V314.277C586.381 309.895 583.929 306.116 580.353 304.216C584.082 302.163 586.392 298.257 586.381 294.02C586.381 289.101 590.317 285.121 595.153 285.121C595.873 285.121 596.57 285.054 597.245 284.92H603.183C603.858 285.054 604.532 285.121 605.23 285.121C610.065 285.121 614.002 289.123 614.002 294.042C614.002 298.447 616.431 302.27 620.007 304.216H620.03C616.309 306.21 613.993 310.076 614.002 314.277V355.619C614.002 361.88 619.018 366.978 625.181 366.978H625.585C631.748 366.978 636.764 361.88 636.764 355.619V314.255C636.764 309.873 634.313 306.094 630.736 304.193C634.466 302.141 636.776 298.235 636.764 293.998C636.764 289.079 640.701 285.099 645.536 285.099C646.256 285.099 646.954 285.032 647.628 284.897H665.892C672.055 284.897 677.071 279.8 677.071 273.539C677.071 267.278 672.145 262.203 665.96 262.203ZM654.376 273.561C654.376 277.832 651.407 281.409 647.448 282.259H632.896C635.395 280.052 636.821 276.884 636.809 273.561C636.809 269.291 639.778 265.713 643.76 264.864H647.426C651.385 265.713 654.354 269.291 654.354 273.561H654.376ZM625.451 302.941C623.943 302.941 622.526 302.561 621.289 301.868C618.437 300.276 616.681 297.271 616.701 294.02C616.701 289.101 620.637 285.121 625.473 285.121H625.518C630.331 285.143 634.245 289.123 634.245 294.042C634.245 298.961 630.309 302.941 625.473 302.941H625.451ZM638.159 264.864C635.66 267.07 634.234 270.239 634.245 273.561C634.245 277.832 631.276 281.409 627.317 282.259H623.629C623.404 282.214 623.179 282.147 622.954 282.08C625.293 280.001 626.778 276.96 626.778 273.561C626.778 270.163 625.203 266.943 622.751 264.864H638.159ZM612.27 284.92H618.478C617.196 285.926 616.139 287.223 615.374 288.676C614.609 287.2 613.552 285.926 612.27 284.92ZM625.653 305.58C630.376 305.58 634.223 309.492 634.223 314.277V347.861C632.131 345.289 628.982 343.657 625.451 343.657C621.919 343.657 618.77 345.289 616.678 347.861V314.3C616.678 309.492 620.525 305.602 625.248 305.602H625.653V305.58ZM635.527 288.676C634.762 287.2 633.705 285.926 632.423 284.92H638.631C637.349 285.926 636.292 287.223 635.527 288.676ZM665.96 282.259H653.072C655.564 280.045 656.987 276.882 656.987 273.561C656.987 270.239 655.564 267.077 653.072 264.864H665.96C670.683 264.864 674.53 268.776 674.53 273.561C674.53 278.346 670.683 282.259 665.96 282.259ZM387.32 262.672H387.005C381.292 262.672 376.636 267.39 376.636 273.181V314.501C376.636 319.017 373.6 322.796 369.506 323.936C368.696 323.735 367.864 323.623 366.987 323.623C360.959 323.623 356.033 328.609 356.033 334.736C356.033 335.63 356.145 336.48 356.348 337.307C355.403 340.817 352.569 343.545 349.038 344.306C348.318 344.149 347.598 344.082 346.833 344.082C345.731 344.082 344.674 344.261 343.685 344.551C340.531 343.583 338.079 341.106 337.162 337.956C337.477 336.927 337.634 335.854 337.634 334.736C337.634 328.609 332.731 323.623 326.68 323.623C325.803 323.623 324.971 323.735 324.161 323.936C319.928 322.731 317.015 318.877 317.031 314.501V273.181C317.031 267.39 312.375 262.672 306.662 262.672H306.347C300.656 262.672 296 267.39 296 273.181V314.434C296 314.792 296 315.149 296.045 315.507C296.54 320.918 301.038 325.166 306.504 325.166C311.07 325.166 314.916 328.431 315.884 332.768C315.771 333.417 315.704 334.065 315.704 334.736V335.183C315.704 341.063 320.427 345.848 326.208 345.848C331.516 345.848 335.857 350.253 335.857 355.642C335.857 361.522 340.581 366.307 346.384 366.307H346.833C352.862 366.307 357.787 361.321 357.787 355.194C357.787 354.725 357.742 354.255 357.697 353.786C358.26 349.783 361.229 346.564 365.053 345.669C365.682 345.781 366.335 345.848 367.009 345.848C373.037 345.848 377.963 340.862 377.963 334.736C377.963 334.065 377.896 333.417 377.783 332.768C378.773 328.408 382.597 325.144 387.185 325.144C392.989 325.144 397.689 320.359 397.689 314.478V273.181C397.689 267.39 393.033 262.672 387.32 262.672Z" fill="#FF6A00"/>
</svg>
